<svg xmlns="http://www.w3.org/2000/svg" width="1024" height="1024"><path fill="#0295ED" d="M125 8h16v3h3l1 4 1.813.313c2.547.8 3.602 1.548 5.187 3.687v4l5 1v3l4 1v3l4 1v3l4 1v3l3 1 1 2c2.017 1.134 2.017 1.134 4 2v3l4 1v3l4 1v3l4 1v3l4 1v3l4 1v3l4 1v3l1.938.375L205 72l1 2a134.078 134.078 0 0 0 6 3v2l5 1v3h7l1 4 13 1 1 3 25-1 1-2c2.723-.633 2.723-.633 6.063-1.125l3.347-.508L277 86l1-3 2.813-.313c3.39-.73 3.92-1.317 6.187-3.687h4l2-4h5v-2c3.228-2.152 4.284-2.2 8-2l1-3c1.742-.879 1.742-.879 3.875-1.563 2.834-.925 4.577-1.738 7.125-3.437 1.628-.465 3.256-.927 4.89-1.367C330.57 59.414 330.57 59.414 337 55c2.688-.27 5.291-.087 8 0l1-4 1.863-.113 2.45-.2 2.425-.175c2.67-.604 3.412-1.575 5.262-3.512 2.332-.34 4.666-.672 7-1l1.875-1.563c3.415-2.31 7.12-1.668 11.125-1.437l1-3c2.617-.879 2.617-.879 5.875-1.563 3.713-.791 5.937-1.311 9.125-3.437 3.033-.337 6.041-.441 9.09-.559 2.927-.201 2.927-.201 4.848-1.945 3.73-2.705 8.38-1.977 12.847-2.09 3.187-.055 3.187-.055 4.624-1.913 2.138-2.007 3.366-1.841 6.259-1.786l2.705.03c.929.024 1.858.05 2.815.076l2.85.04c2.32.036 4.641.085 6.962.147l1-3c2.87-1.435 5.335-1.112 8.54-1.098l3.944.01 4.141.026A3987.48 3987.48 0 0 1 479 23l1-3.001a82.212 82.212 0 0 1 11.902-1.316l3.41-.128 3.625-.119 3.788-.126c16.63-.518 33.206-.414 49.837.064l3.77.093 3.547.118 3.143.095c3.372.361 7.478.82 9.978 3.319 1.964.122 3.931.18 5.898.21 1.202.03 2.403.058 3.641.087 2.55.052 5.099.096 7.649.133l3.648.093 3.36.06c3.196.475 3.687 1.152 5.804 3.417 2.167.47 2.167.47 4.563.441l2.664.08 2.773.041c1.813.035 3.625.078 5.438.13l2.433.037C623 27 623 27 626 29v2l2.957-.07 3.856-.055 3.832-.07C640 31 640 31 643 33v2l2.887-.105 3.8-.083 3.762-.105c3.81.314 5.435 1.2 8.551 3.293 2.161.65 2.161.65 4.25 1l3.75 1 1 3 2.336-.105 3.039-.083 3.023-.105L682 43l2 3c2.425.582 2.425.582 5.125.688l2.758.199L694 47l1 4 3.75-.188c3.86-.006 5.243.745 8.25 3.188 2.646.846 5.28 1.41 8 2v3l3.188-.188c4.125.203 5.44.996 8.812 3.188l3.75 1 3.25 1 1 3 8 1v3l2.813-.188c3.73.22 3.758.662 6.187 3.188l3.625 1L759 76l1 3 7 1v3l5 1v3l7 1 1 3 2.375.438C785 92 785 92 787 93v2l5 1v3l6 1 1 3c2.015.733 2.015.733 4 1l1 4h4v3l7 1 1 3h3l1-6 4-1v-5h3l.313-2.875C828 97 828 97 831 95c1.192-2.05 1.192-2.05 2-4h2l.688-2.125c1.65-3.616 3.603-5.963 6.312-8.875h2l.813-1.938C846 76 846 76 849 75v-3h3l.762-1.785c1.393-2.491 2.859-3.838 5.05-5.653 2.445-2.056 4.662-4.058 6.875-6.374 2.37-2.242 4.226-3.218 7.313-4.188v-3h2l.875-1.813C876 47 876 47 878 44h2l1-4h3l.313-1.938L885 36l3-1 1-3h3l1-4 4-1v-3c1.813-2.188 1.813-2.188 4-4h3l2-5h3v-3h3l2-4h10l1 2c2.017 1.134 2.017 1.134 4 2v3l4 1v3h3v4l5 1v3h3l1 4 4 1v3l4 1v3l4 2v2l4 1v3h3v4l5 1v3l1.938.313L973 56l1 3 3 1v3l4 1v3h3l1 4 4 1v3l4 1v3l4 1v3l4 1v4h4v3l4 1v3h3l1 4 4 1v3l4 1v4h3v24h-3l-2 4h-2l-1 4h-3l-2 4h-2l-.313 1.938L1008 148l-3 1-1 3h-3l-2 4h-2l-1 4h-3l-2 4h-2l-.313 1.938L988 168l-3 1-1 3h-3l-1 4h-3l-1 4h-3l-2 4h-2l-.313 1.938L968 188l-3 1-1 3h-3v4a90.488 90.488 0 0 1-4 4c-1.235 2.133-1.235 2.133-2 4h-2l-1 7-3 1 .105 1.863.082 2.45.106 2.425C949 221 949 221 947.507 222.245c-2.239 2.607-1.895 4.712-1.905 8.103l-.012 3.771.035 3.944-.035 3.955.012 3.767.01 3.465L946 252l3 2c.293 2.383.293 2.383.188 5.125l-.083 2.758L949 264h3l1 8 3 1 .25 3.375L957 280c1.933 1.092 1.933 1.092 4 2 1 2.625 1 2.625 2 6 2.385 5.408 2.385 5.408 6 10l.438 2.438c.308 2.612.308 2.612 2.125 3.937 2.308 2.61 1.626 5.294 1.437 8.625l3 1c1.158 3.473 1.069 6.36 1 10l4 1 .375 3.438L982 332l2 1c.89 2.815 1.538 5.659 2.219 8.531L987 344l2 1v9l3 1c1.533 3.066 1.336 6.296 1.523 9.688.27 2.682.27 2.682 3.477 4.312.293 2.82.293 2.82.188 6.125l-.083 3.32L997 381l1.965.637L1001 383c.504 2.645.504 2.645.563 5.813.076 4.538.076 4.538 1.898 8.597 2.016 3.393 2.204 6.306 2.601 10.215.483 5.531.483 5.531 2.938 10.375.319 2.085.319 2.085.414 4.45l.117 2.568.094 2.67.117 2.705c.094 2.202.18 4.404.258 6.607l2 1c1.048 3.732 1.16 7.394 1.246 11.254l.1 3.588c.061 2.484.118 4.968.172 7.453l.103 3.584.076 3.268c.305 2.867.993 4.34 2.303 6.853.874 4.252 1.126 8.294 1.13 12.629l.009 3.934-.006 4.214a4510.713 4510.713 0 0 1-.002 13.489c-.006 3.885-.003 7.77.003 11.654.004 3.002.002 6.004 0 9.005 0 1.432 0 2.864.002 4.295.003 2.008-.002 4.015-.007 6.022l-.002 3.451c-.203 5.287-.767 9.598-3.127 14.307-.332 2.689-.332 2.689-.344 5.613l-.09 3.283-.066 3.417c-.264 13.439-.264 13.439-2.5 19.687h-2l.032 1.712c.041 2.555.067 5.109.093 7.663l.05 2.695.02 2.578.032 2.38C1009 608 1009 608 1007 610c-.552 2.024-.552 2.024-.852 4.352l-.39 2.578-.383 2.695-.406 2.719c-.33 2.218-.653 4.436-.969 6.656l-3 1 .105 2.52.082 3.293.106 3.269c-.342 3.41-.97 3.642-3.293 5.918-.58 2.962-.58 2.962-.688 6.188l-.199 3.292L997 657l-4 1v11l-4 1v11l-3 1c-.732 2.076-.732 2.076-1.063 4.5-.41 2.469-.41 2.469-.937 4.5l-2 1c-.314 2.294-.38 4.558-.46 6.871-.54 2.129-.54 2.129-2.58 3.414L977 703v7l-1.953.71c-2.255 1.102-2.255 1.102-2.656 3.454l-.141 2.461-.172 2.477L972 721l-3 1-1 7-3 1-1 8h-3l-1 7-3 1-.188 3.063c-.644 4.644-2.837 7.381-5.812 10.937h-2v6l-4 1-1 6-3 1v5l-5 1v6h-3l-1 5h-3l-.313 2.25c-.738 2.954-1.81 4.403-3.687 6.75l-1 3-2 1 1 3 5 1v2l2.188.813c2.792 1.178 5.242 2.59 7.812 4.187l2 1v3h4l1 3c2 1.209 2 1.209 4 2v3h4l1 3c2.332 2.643 3.617 3.872 7 5l1 3c1.496 1.52 1.496 1.52 3.313 2.938.94.78.94.78 1.898 1.578L969 844c2.438 2.188 2.438 2.188 4 4v3l1.938.375L977 852l1 2 3 1 1 3a396.178 396.178 0 0 0 5 3v2l1.875.75c2.512 1.478 2.886 2.69 4.125 5.25l3 1v2l1.938.813C1000 874 1000 874 1001 877l3 1c1.688 1.438 1.688 1.438 3 3v2h2v2h2a392.898 392.898 0 0 1 3 5c2.382 2.68 3.566 3.855 7 5v5h3v14l-4 2-1 3h-2l-.813 1.938C1015 923 1015 923 1012 924v3c-5.349 5-5.349 5-8 5v3c-1.813 2.188-1.813 2.188-4 4h-3l-2 5h-3v3c-5.349 5-5.349 5-8 5v3l-1.938.313L980 956l-1 3c-2.438 2.688-2.438 2.688-5 5h-2v3h-3l-2 5h-3l-.25 1.75c-.976 2.928-2.385 4.302-4.75 6.25h-3l-.125 1.688c-1.319 3.485-4.005 5.028-6.875 7.312l-2 3h-3l-.25 1.75c-.976 2.928-2.385 4.302-4.75 6.25h-3l-1 4h-3v3c-2.313 2.688-2.313 2.688-5 5h-3l-1 3h-15v-3h-4v-3l-4-1v-4h-4v-3l-4-1v-3l-4-2v-3h-4v-3l-4-1v-4h-4l-1-3-3-1v-4l-4-1v-3h-4l-1-3-3-1v-4h-4v-3l-4-1v-4h-4l-1-3-3-1v-4l-2.375-.438C839 947 839 947 837 946v-2l-5-1v-2l-2.313-.438C827 940 827 940 824 939v-3l-2.117.035-2.758.028-2.742.035C814 936 814 936 812 935v-2h-29v2c-2.525 1.262-4.312 1.099-7.125 1.063l-2.758-.028L771 936v3c-2.906 1.257-4.796 2-8 2l-1 3h-7v3l-3.438.813L748 949l-1 3h-7l-2 4h-7v3l-2.152.84-2.785 1.097-2.778 1.09c-2.21.773-2.21.773-3.285 1.973-2.67.141-5.324.042-8 0l-1 4-8 1-1 3h-10l-1 4h-10l-2 4c-2.893 1.447-5.805 1.38-9.004 1.621L668 982l-1 2h-12l-1 3c-4.03 2.34-8.343 2.387-12.89 2.656L639 990l-1 2h-16l-1 3c-6.397 2.303-12.974 2.386-19.707 2.656-3.432.1-3.432.1-6.293 2.344-7.314 1.114-14.676 1.303-22.063 1.563l-3.49.13c-2.815.106-5.631.208-8.447.307v2c-9.71.046-19.42.082-29.13.104-4.508.01-9.016.024-13.525.047-4.35.022-8.701.034-13.052.039-1.66.003-3.32.01-4.98.021-2.325.015-4.65.017-6.974.016l-2.082.022c-3.64-.016-6.126-.383-9.257-2.249-2.345-.346-2.345-.346-4.852-.379l-2.832-.103-2.941-.08c-20.187-.646-20.187-.646-24.375-3.438a103.058 103.058 0 0 0-6.813-.5c-4.741-.203-8.812-.564-13.187-2.5l-1-3-3.648.035-4.727.028-2.406.025c-5.992.025-5.992.025-8.219-1.088v-2l-2.012.105c-8.803.27-8.803.27-12.988-3.105l-1-1a144.504 144.504 0 0 0-6.063-.563l-3.347-.253L379 984l-1-3-3.75.125c-3.266.012-5.465-.268-8.25-2.125v-3l-2.117.035-2.758.028-2.742.035C356 976 356 976 354 975v-3l-3.875.125c-2.18.07-2.18.07-4.125-.125l-2-2c-1.9-.638-1.9-.638-4-1.063-2.212-.492-3.967-.92-6-1.937v-3h-8l-1-3-3.375-.313L318 960l-2-3c-3.568-.736-3.568-.736-7-1v-2l-2.117-.586-2.758-.789-2.742-.773C299 951 299 951 297 949l-2.5-1c-2.5-1-2.5-1-4.5-3l-2.688-.875c-3.816-1.296-6.861-3.054-10.312-5.125v-3c-1.423.03-1.423.03-2.875.063C271 936 271 936 269 935v-3h-4l-1-4h-6l-1-4-2.813-.313c-3.337-.72-4.038-1.232-6.187-3.687l-3-1-1-2-3-1v-3l-8-2v-3h-4l-1 7-3 1a70.134 70.134 0 0 0-1 4l-2 1a134.078 134.078 0 0 0-3 6h-2l-.313 1.938L216 931l-3 1c-.733 2.015-.733 2.015-1 4h-3v4l-4 1-.313 1.813c-.785 2.5-1.656 3.562-3.687 5.187h-2v3c-2.93 2.735-5.177 4.726-9 6-1.209 2-1.209 2-2 4h-3v3l-3 1-1.375 2.875c-1.89 3.636-3.172 4.085-6.625 6.125-1.901 2.057-3.683 4.182-5.45 6.355L167 982h-2l-.625 2.188c-1.85 3.784-3.977 5.335-7.375 7.812h-2v3c-2.25 2.438-2.25 2.438-5 5l-2.188 2.313C146 1004 146 1004 144 1004l-1 3c-2.375 2.688-2.375 2.688-5 5h-3v2c-3.215 1.607-6.436 1.057-10 1l-1-3h-4v-3l-4-1v-4h-4v-3l-4-1v-3l-1.938-.313L104 996l-1-3-3-1v-3l-4-1v-4h-4c-2.25-1.75-2.25-1.75-4-4v-4h-4l-1-4h-3v-3l-4-1v-4h-4v-3l-4-1v-4h-4l-1-4h-3v-4h-4l-1-4h-3v-3l-4-1v-4l-5-1v-3h-3v-4l-5-1v-3h-3l-1-3c-2-1.209-2-1.209-4-2v-3l-4-1v-3h-2c-.081-2.584-.14-5.165-.188-7.75l-.076-2.21c-.044-3.27.05-5.635 1.588-8.556C24 892 24 892 27 892l2-5h3l1-4h2l1-3c2.063-.688 2.063-.688 4-1l.313-1.813c.8-2.547 1.548-3.602 3.687-5.187h4l1-5h3l1-4h3l1-4h3l1-4h3l1-3h3l1-5h3v-3l4-1 1-4h3l.25-1.75c.976-2.928 2.385-4.302 4.75-6.25h3l.375-2.375C89 826 89 826 91 824c.707-1.65 1.38-3.316 2-5h3v-7l4-1-.07-2.117-.055-2.758-.07-2.742C100 801 100 801 102 799c.311-2.571.311-2.571.266-5.559l.007-3.357-.023-3.521.023-3.51-.007-3.362-.007-3.087c-.077-2.84-.077-2.84-2.259-5.604-.195-2.262-.195-2.262-.125-4.688l.055-2.449L100 762h-2c-2-3-2-3-3-6.625L94 752l-2-1-2-5-2-1v-7h-3c-1.257-2.906-2-4.796-2-8h-3l-.375-3.438L79 723l-2-1c-.781-1.996-.781-1.996-1.5-4.438-1.073-3.656-1.073-3.656-3.5-6.562-.414-2.164-.414-2.164-.625-4.625l-.227-2.477L71 702h-2c-1.203-2.405-1.1-3.95-1.063-6.625l.028-2.477L68 691l-1.895-.223C64 690 64 690 62.988 688.004l-.675-2.442c-.95-3.36-.95-3.36-2.313-6.562a77.923 77.923 0 0 1-.063-4.625l.028-2.477L60 670h-3c-2.6-3.9-2.15-7.474-2-12l-3-1-.367-2.52-.508-3.293-.492-3.269c-.484-3.091-.484-3.091-2.633-5.918-.334-2.805-.441-5.584-.559-8.406-.51-3-1.27-3.596-3.441-5.594-1.425-3.615-1.098-7.415-1.063-11.25l.028-3.828L43 610h-3v-20l-3-1c-1.83-4.158-2.24-7.766-2.195-12.273l.02-3.497.05-3.605.027-3.676c.024-2.983.057-5.966.098-8.949l-3-1c-.046-11.57-.082-23.14-.104-34.709-.01-5.372-.024-10.743-.047-16.115-.022-5.18-.034-10.361-.039-15.542-.003-1.98-.01-3.96-.021-5.94-.015-2.766-.017-5.531-.016-8.297l-.022-2.5c.02-5.669.02-5.669 2.249-7.897.34-2.635.34-2.635.344-5.707l.09-3.467.066-3.639c.044-2.36.095-4.721.156-7.082l.057-3.182c.299-3.043.846-5.228 2.287-7.923l3-1c-.01-.626-.02-1.251-.032-1.896a1516.98 1516.98 0 0 1-.093-8.479l-.05-2.984-.02-2.852-.032-2.634C40 412 40 412 42 410c.39-2.988.39-2.988.5-6.375.184-4.075.351-7.107 2.5-10.625h2c.09-1.481.09-1.481.184-2.992l.254-3.883c.08-1.276.162-2.552.246-3.867C48 379 48 379 49 377h2l1-11 3-1-.035-1.863-.028-2.45-.035-2.425C55 356 55 356 56 353l4-1v-11h3l-.188-3.188c.196-3.973.755-5.724 3.188-8.812h2v-8l2-1c.69-2.35.69-2.35 1.125-5.063l.508-2.785L72 310l3-1 1-7 4-1v-8l3-1 1-7 4-1-.188-3.375L88 277l3-2c1.213-3.054 1.213-3.054 2-6h3v-5h2v-2h2v-6h3l.875-3.438L105 249l2-1c.652-2.025.652-2.025 1-4h3l2-8h3l1-4h3l-.188-2.875L120 226l3-2 1-3c2.063-.688 2.063-.688 4-1v-3l-1.813-.438c-1.749-.45-3.474-.99-5.187-1.562l-1-2c-2.017-1.134-2.017-1.134-4-2v-2l-1.766-.352c-2.38-.69-3.965-1.6-5.984-3.023l-1.86-1.273L105 203v-3h-5v-3l-4-1v-4h-4c-2.25-1.813-2.25-1.813-4-4v-3l-4-1-1-4h-3v-3l-4-1-1-4h-3v-3l-4-1v-4l-5-1v-3h-3v-3l-5-2v-3h-3c-2.68-2.286-3.874-3.622-5-7-2-1.209-2-1.209-4-2v-3h-3l-1-3-3-1.375L33 134c-.364-1.66-.7-3.327-1-5-2.476-1.375-2.476-1.375-5-2v-3l-1.875-.25C23 123 23 123 21.75 121.312c-1.352-4.17-1.261-7.193.563-11.187L24 108h3l2-5h3v-3h3l2-5h3l.313-1.813C41.112 90.64 41.86 89.585 44 88h4l1-5h3v-3l3-1c1.209-2 1.209-2 2-4h3v-3l4-1v-3l4-1 1-4h3v-3h4l1-5h3l1-4h3l1-4h3l1-4h3v-3l4-1 1-4h3l1-4h3l1-4h3l1-4h3l1-4h3l1-4h3l1-4h3l1-3Zm370 175c-5.342 1.308-10.899 1.324-16.375 1.563l-2.809.13c-2.272.106-4.544.208-6.816.307v2l-19 2-1 3-2.738-.105-3.575-.083-3.55-.105c-3.542.33-3.883.787-6.137 3.293-2.41.66-2.41.66-5.063 1.063-3.92.516-3.92.516-6.937 2.937-2.023.273-2.023.273-4.375.375-4.349.374-5.634 1.434-8.625 4.625-2.324.394-4.658.735-7 1l-1 2c-1.75.746-1.75.746-4 1.438l-2.441.777c-1.694.52-3.389 1.033-5.086 1.539l-2.41.746-2.215.656c-2.207.812-2.207.812-3.848 3.844-1.994.366-3.995.701-6 1l-1 2c-2.322.407-4.657.744-7 1l-1 4-5 1v2l-3.25.813c-3.377 1.069-5.088 2-7.75 4.187l-3 1-2 3-3 1-1 2c-2.322.407-4.657.744-7 1l-.313 1.938L332 244l-3 1-1 2c-2.51 1.604-5.087 3.049-7.688 4.5-2.561 1.445-2.561 1.445-4.312 4.5l-3 1v3l-1.938.375L309 261l-1 2-3 1v3l-2.188.688c-3.398 1.585-5.264 3.573-7.812 6.312-2.4 2.46-4.679 4.761-7.438 6.813-3.443 2.94-6.149 6.356-8.562 10.187v2h-2v3l-1.938.313L273 297l-1 3-3 1-1 3-3 1v4l-3 1c-2.277 2.815-2.277 2.815-2 6h-3l-.313 1.813C256 320 256 320 254.5 321.438c-1.966 2.047-2.127 3.8-2.5 6.562h-3l-.313 1.938L248 332l-3 1c-.73 1.977-1.394 3.98-2 6l-2 3v3h-4l-.313 3.313c-.725 3.892-1.06 4.17-3.687 6.687-.727 3.108-.727 3.108-1 6h-3l-1 7-3 1c-.534 1.636-1.053 3.28-1.46 4.953-.579 2.193-1.34 4.248-2.165 6.36-1.491 3.343-1.491 3.343-1.375 5.687h-3l-.375 3.875c-.375 3.875-.375 3.875-2.625 6.125-.676 1.83-.676 1.83-1.125 3.875l-.508 2.055c-.483 2.376-.483 2.376-.367 6.07h-3l-.367 2.59-.508 3.348-.492 3.34L207 420l-2 1c-.36 3.3-.445 6.581-.559 9.898C204 434 204 434 202.504 435.443c-1.874 1.94-1.916 2.911-2.016 5.569l-.107 2.295-.069 2.38-.103 2.417c-.082 1.965-.147 3.93-.209 5.896l-3 1-.06 2.247c-.095 3.356-.205 6.71-.315 10.065-.03 1.168-.062 2.335-.094 3.538l-.117 3.388-.095 3.127C196 480 196 480 194 483c-.304 2.545-.304 2.545-.259 5.434l-.019 3.367.012 3.637-.005 3.732c-.002 3.273.006 6.547.017 9.82.004 2.008 0 4.015-.007 6.023-.012 3.85-.01 7.7-.005 11.55l-.012 3.636.02 3.367c0 .98.002 1.959.004 2.967.086 2.72.086 2.72 2.254 5.467.319 2.727.319 2.727.414 5.98l.117 3.526.094 3.682.117 3.716c.095 3.032.18 6.064.258 9.096h2c1.482 4.864 1.377 9.937 1.621 14.98L201 586l2 1c1.105 3.315 1.321 6.204 1.563 9.688l.253 3.574L205 603h3l.113 2.52.2 3.293.175 3.269c.57 3.245 1.185 3.782 3.512 5.918.66 2.191.66 2.191 1.063 4.563.583 3.633.583 3.633 2.937 6.437.565 2.655.738 5.291 1 8l3 1c.879 1.82.879 1.82 1.563 4.125l.753 2.45c.422 1.497.83 2.999 1.211 4.507 1.038 4.206 1.038 4.206 4.473 6.918.688 3.125.688 3.125 1 6l4 1 1 8h3l-.25 2.75c-.06 3.304-.06 3.304 2.063 5.438a161.233 161.233 0 0 0 3.875 3.125c2.048 2.634 2.006 5.44 2.312 8.687h4l1 5h2l.875 2.938c.767 3.169.767 3.169 3.125 4.062.625 2.063.625 2.063 1 4l4 1 .375 1.875c.497 2.316.497 2.316 2.625 4.125.625 2.625.625 2.625 1 5h4l2 4h2v4l3 1 1 3h3l.875 2.438c.858 2.695.858 2.695 3.125 3.562l1 3a317.62 317.62 0 0 0 6 5l1 2 3 1c1.62 1.721 3.039 3.55 4.5 5.406 1.515 1.862 1.515 1.862 4.5 2.594l1 3 3 1 1 2 3 1c.688 2.063.688 2.063 1 4l1.813.313C317 768 317 768 318.438 769.5c2.047 1.966 3.8 2.127 6.562 2.5v3h4l1 4h3v3c2.906 1.257 4.796 2 8 2v3h4l1 3c3.512 1.23 3.512 1.23 7 2v3l1.875.313C357 796 357 796 359 799c3.084.25 3.084.25 6 0l1 3c1.847.692 1.847.692 4 1 2.188.375 2.188.375 4 1l1 3c1.662.532 3.331 1.05 5.027 1.46 2.007.55 3.774 1.293 5.66 2.165 3.331 1.63 3.331 1.63 7.313 1.375v3l7 1 1 3 2.117.367 2.758.508 2.742.492C411 821 411 821 413 823l3.5.438 3.5.562 2 3c2.855.51 2.855.51 6.063.563 3.285.128 3.285.128 5.937.437l1 2c2.54.476 5 .84 7.563 1.125l2.154.262c1.76.212 3.521.414 5.283.613l1 3 3.648.113c1.576.066 3.152.132 4.727.2l2.406.068c2.081.097 4.153.349 6.219.619l2 3c3.038.463 3.038.463 6.617.406l1.98.033c2.093.034 4.185.05 6.278.061 2.748.015 5.495.048 8.242.094l3.707.021C500 840 500 840 501.884 841.5c3.327 2.358 6.93 1.928 10.862 1.898l2.57.01c1.791.001 3.583-.004 5.374-.017 2.735-.016 5.468 0 8.203.02 1.742-.003 3.485-.007 5.228-.013l2.469.019c4.817-.06 7.29-.784 11.41-3.417 3.138-.432 3.138-.432 6.613-.512l3.78-.107 3.92-.068 3.978-.104c3.236-.082 6.472-.152 9.709-.209v-2c4.355-1.452 8.814-1.355 13.371-1.518 1.881-.09 3.757-.279 5.629-.482l1-2a114.97 114.97 0 0 1 7.438-1.5c5.258-.678 5.258-.678 9.562-3.5 2.596-.38 5.166-.506 7.785-.656L623 827l1-2c2.504-.633 2.504-.633 5.563-1.125l3.066-.508L635 823l1-3 8-1v-2l11-2v-3l6.055-1.367c2.152-.538 2.152-.538 3.945-2.633a89.901 89.901 0 0 1 6-1v-2l1.934-.586 2.504-.789 2.496-.773c2.244-.66 2.244-.66 3.066-2.852l7-2 1-2 2.938-.438L695 795l2-3a252.854 252.854 0 0 1 6-2l1-2c2.063-.625 2.063-.625 4-1v-3l1.813-.438c1.749-.45 3.474-.99 5.187-1.562l1-2 3-1v-3l2.625-.75c3.604-1.335 6.355-2.877 9.375-5.25v-3l5-1 1-3c1.522-1.812 2.695-2.868 4.875-3.813 3.11-1.737 4.868-4.467 7.125-7.187l3-1 2-3 2.25-1.188c3.304-2.177 5.07-4.663 7.32-7.875 1.357-1.839 2.791-3.35 4.43-4.937 2.998-3.092 2.998-3.092 4-7h3l.875-1.938C777 723 777 723 779 722v-3l1.875-.125L783 718c.73-1.977 1.394-3.98 2-6 1.375-1.563 1.375-1.563 3-3 2.998-3.092 2.998-3.092 4-7l3-1a124.97 124.97 0 0 0 2-5l2-1 1-3c2.063-.688 2.063-.688 4-1v-8h3l.25-1.75c.75-2.25.75-2.25 2.813-4.25 2.4-2.015 2.4-2.015 1.937-6h3l1-8 3-1c.68-1.996 1.346-3.996 2-6l3-2c.368-2.328.702-4.662 1-7l2-1c.395-2.324.722-4.66 1-7 .309-1.34.63-2.677 1-4h3l.375-3.813c.324-3.29.691-4.286 2.625-7.187.59-2.334 1.008-4.67 1.438-7.04L837 615l2-1c.657-2.709.657-2.709 1.063-5.875.466-3.2.914-6.055 1.937-9.125h2l.148-2.59.227-3.347c.07-1.103.14-2.205.21-3.34L845 587l2-1c.434-3.073.434-3.073.563-6.688.233-4.516.61-8.864 1.437-13.312h3l.06-2.814c.078-3.44.165-6.88.257-10.32.039-1.49.074-2.98.105-4.47.045-2.14.103-4.28.164-6.42l.095-3.903C853 535 853 535 855 533c.188-3.05.255-6.008.23-9.059v-2.727c-.004-1.906-.012-3.812-.024-5.717-.018-2.92-.02-5.838-.02-8.757-.005-1.85-.011-3.699-.018-5.549l-.003-2.651-.02-2.467-.011-2.17c-.07-2.127-.07-2.127-1.134-4.903h-2l.048-2.706c.05-3.316.088-6.63.117-9.947.015-1.434.035-2.869.061-4.303.037-2.063.054-4.125.067-6.189l.048-3.76c-.374-3.394-.796-4.02-3.341-6.095-1.187-3.56-1.351-6.973-1.563-10.688l-.13-2.126c-.106-1.729-.207-3.457-.307-5.186l-3-1 .105-2.738.082-3.575.106-3.55c-.331-3.546-.785-3.88-3.293-6.137-.73-2.48-.73-2.48-1.188-5.188l-.48-2.73L839 411h-2l-.367-2.117-.508-2.758-.492-2.742c-.463-2.548-.463-2.548-2.633-4.383-.414-2.383-.414-2.383-.625-5.125l-.227-2.758L832 389h-3l-.367-1.898-.508-2.477-.492-2.46c-.5-2.352-.5-2.352-2.633-4.165-.301-2.307-.378-4.582-.46-6.906L824 369c-1.97-1.105-1.97-1.105-4-2-.75-3.125-.75-3.125-1-6h-3l-1-7-3-1v-4a181.008 181.008 0 0 0-4-4c-.75-2.25-.75-2.25-1-4h-3l.188-2.313c.057-2.708.057-2.708-1.563-4.5-1.559-1.384-1.559-1.384-3.625-1.187v-4c-1.27-1.521-1.27-1.521-3-3-2.66-3.05-4.032-5.13-5-9l-3-1-1-3-2-1-.438-1.875c-.667-2.522-1.544-3.51-3.562-5.125h-2l-1-4h-2l-1-4-4-1v-3l-3-2-1-3h-3v-3l-3-1-1-3c-2.015-.733-2.015-.733-4-1v-3l-1.75-.688c-3.392-1.978-5.505-4.822-7.25-8.312l-3-1-1-2-3-1-1-3c-1.786-1.669-1.786-1.669-3.938-3.188l-2.152-1.605c-1.815-1.385-1.815-1.385-3.91-1.207v-2l-1.875-.813C725 251 725 251 723 248l-3-1-1-2-3-1c-1.188-2.063-1.188-2.063-2-4h-6l-1-3-3-1-1-3-7-1-1-3a48.317 48.317 0 0 0-8.813-3.938C684 224 684 224 683.188 221.875L683 220h-8v-3l-7-1-1-4-3.375-.375C660 211 660 211 658 209c-2.427-.68-2.427-.68-5.125-1.125l-2.758-.508L648 207v-2l-1.898-.332-2.477-.48-2.46-.458C639 203 639 203 637 200c-2.165-.506-2.165-.506-4.563-.563-2.44-.128-2.44-.128-4.437-.437l-1-2c-2.58-.69-2.58-.69-5.563-1.125l-3.066-.508L616 195l-1-3-3.246-.148-4.192-.227c-.707-.03-1.414-.062-2.142-.094-1.812-.104-3.618-.31-5.42-.531l-1-2c-1.934-.468-1.934-.468-4.254-.633l-2.588-.254-2.72-.238-2.733-.262A920.87 920.87 0 0 0 580 187v-2l-1.693-.06c-2.582-.097-5.163-.206-7.745-.315-.878-.03-1.756-.062-2.662-.094-15.035-.666-15.035-.666-18.9-4.531-2.146-.313-2.146-.313-4.646-.275l-2.923-.029-3.17.003-3.25-.013a1538.62 1538.62 0 0 0-6.822-.002c-3.477.003-6.953-.02-10.43-.045-2.207-.003-4.415-.003-6.622-.002l-3.151-.028c-5.207.033-8.71.096-12.986 3.391Z"/><path fill="#0774C5" d="M816 115h1c.081 1.937.14 3.875.188 5.813l.105 3.269c-.333 3.318-.888 3.81-3.293 5.918l-.5 3.5c-.53 3.705-.856 4.187-3.5 6.5a139.595 139.595 0 0 0-1 4l-2 1c-.84 1.91-.84 1.91-1.5 4.188l-.773 2.472L804 154l-1.125 3.125c-.984 2.962-.984 2.962-1.375 6.5-.5 3.375-.5 3.375-1.46 5.258-1.2 2.445-1.672 4.693-2.165 7.367l-.508 2.703L797 181l-3 1 .124 3.083c-.126 3.967-.898 6.827-2.104 10.589-3.42 12.212-2.48 25.02-2.332 37.578.011 2.523.02 5.047.029 7.57.013 2.44.028 4.88.045 7.32l.022 3.373c-.373 13.167-.373 13.167 3.216 25.487.488 2.219.918 4.45 1.313 6.688 1.116 6 2.582 11.834 4.312 17.687l.661 2.253c.838 3.464.838 3.464 2.714 6.372.574 2.833 1.03 5.68 1.5 8.531.25 2.403.25 2.403 1.5 3.469.072 1.52.084 3.042.063 4.563l-.028 2.503L805 331h3v10h-4v-5l-3-1v-2h3l-1-10h-3v-12h-4l-1-14h-3l-1-18-2 2c-1.238-3.713-1.341-7.293-1.535-11.168l-.13-2.408c-.137-2.537-.267-5.074-.398-7.611-.09-1.721-.183-3.442-.275-5.163-.225-4.216-.445-8.433-.662-12.65l-1 5h-1c-.058-3.125-.094-6.25-.125-9.375l-.05-2.695-.02-2.578-.032-2.38C784 228 784 228 786 226c1.536-7.319 1.304-14.922 1.43-22.371l.093-3.137.06-2.832c.49-3.127 1.726-5.014 3.417-7.66.461-2.95.461-2.95.5-6 .143-4.672 1.046-7.064 3.5-11 .455-2.26.455-2.26.5-4.5.32-3.956 1.3-6.156 3.5-9.5.672-2.332 1.34-4.665 2-7l2-2 .438-3.375c.583-3.76 1.266-4.778 3.562-7.625l1.063-3.188L809 133l2-1a252.441 252.441 0 0 0 3-7l1-1c.232-1.515.412-3.038.563-4.563l.253-2.503L816 115Z"/><path fill="#0772C3" d="m788.063 771.734 2.386-.005c1.665-.002 3.33.002 4.993.01 2.548.011 5.096 0 7.644-.012 1.617 0 3.234.003 4.851.007l2.311-.012c3.787.034 5.523.126 8.752 2.278 2.238.334 2.238.334 4.71.344l2.774.09 2.891.066c11.387.264 11.387.264 15.625 2.5v2l2.957-.07 3.856-.055 3.832-.07C859 779 859 779 862 781v2l3.75-.063c2.914-.005 5.46.133 8.25 1.063v3h9l1 4 10 1v3l8 1v3h5l2 4h12v2c-2.061.109-4.124.186-6.188.25l-3.48.14c-3.978-.466-5.454-1.689-8.332-4.39-3.484-2.354-6.963-3.777-10.89-5.18-2.146-.834-4.134-1.816-6.173-2.883-3.544-1.834-7.095-2.85-10.937-3.937l-2.348-1.527c-3.024-1.68-4.97-1.864-8.402-1.973-4.75-.285-8.632-1.076-13.07-2.734-3.64-1.279-7.403-2.007-11.18-2.766v-2l-2.69-.168a5904.96 5904.96 0 0 1-9.908-.632c-1.427-.091-2.855-.181-4.283-.27a2240.3 2240.3 0 0 1-6.166-.395l-3.745-.238c-2.558-.237-4.745-.647-7.208-1.297a193.01 193.01 0 0 0-8.563-.188h-2.527c-8.339.075-16.526.957-24.796 1.953-3.944.438-7.904.666-11.864.891-2.528.224-2.528.224-5.25 2.344-3.248.578-6.497.952-9.773 1.34-3.372.69-5.36 1.813-8.227 3.66a77.85 77.85 0 0 1-4.75 1.625c-2.883.748-2.883.748-5.25 2.375-2.572.572-5.158 1.029-7.75 1.5-2.208.28-2.208.28-3.25 1.5a91.472 91.472 0 0 1-5.063.063l-2.785-.028L704 792l-1-4 5-1v-3h3v3c1.584-.088 3.168-.196 4.75-.313l2.672-.175c2.93-.582 4.262-1.689 6.578-3.512l7-1 1.785-1.5c3.064-2.075 5.484-1.906 9.153-2 4.947-.012 4.947-.012 9.308-1.996 4.388-2.396 8.957-2 13.879-2.067 1.982-.034 3.964-.077 5.945-.128l2.65-.038c4.7-.559 8.172-2.564 13.342-2.537Z"/><path fill="#0775C6" d="m241 683 4 1a76.929 76.929 0 0 1 .742 15.8c.032 2.288.032 2.288 1.754 3.638C249 705 249 705 249.293 707.698l-.106 2.989-.082 3.011L249 716h4l2 14h2l1 19h2c1.115 3.345 1.134 5.87 1.145 9.396l.01 1.952c.01 2.13.012 4.26.013 6.39l.01 4.45c.006 3.112.008 6.223.007 9.334 0 3.978.014 7.956.031 11.934.011 3.065.013 6.13.013 9.195 0 1.466.005 2.932.013 4.398.01 2.056.007 4.111 0 6.167l.005 3.54c-.266 3.491-.649 7.646-3.247 10.244a277.582 277.582 0 0 0-.43 10.01c-.193 4.402-.79 6.636-3.57 9.99-.461 2.447-.461 2.447-.5 5-.151 4.132-1.021 5.758-3.5 9-.707 2.507-.707 2.507-1.063 5.125-.726 4.664-.726 4.664-2.937 6.875l-1 3c-1 3-1 3-3 5a243.91 243.91 0 0 0-2.21 5.832c-3.079 8.457-3.079 8.457-5.79 11.168-.463 2.662-.463 2.662-.625 5.625l-.227 3.04L233 908h-1a531.951 531.951 0 0 1-.125-5.875l-.07-3.305C232 896 232 896 234 894a59.004 59.004 0 0 0 1.5-3.938c.954-2.774 1.832-4.56 3.5-7.062.942-2.637 1.78-5.298 2.617-7.969 2.312-7.17 5.01-14.287 8.383-21.031.279-3.244.447-6.487.621-9.738.37-3.179 1.184-5.324 2.379-8.262.612-2.752 1.054-5.529 1.5-8.313.237-1.454.476-2.909.719-4.363l.31-1.935C256 819 256 819 257.028 815.55c1.467-5.819 1.297-11.699 1.308-17.666l.02-3.795c.01-2.641.016-5.282.015-7.922 0-2.69.013-5.38.04-8.07.037-3.905.047-7.809.05-11.713l.043-3.612c-.035-6.6-.776-11.731-3.575-17.74-1.197-2.617-1.636-5.123-1.992-7.968-.704-4.816-1.734-9.37-3.082-14.043-.66-2.331-1.277-4.66-1.867-7.008l-.528-2.075a475.83 475.83 0 0 1-1.014-4.075c-.421-1.637-.927-3.253-1.446-4.862l-2-1c-.598-1.813-.598-1.813-1.063-4-.454-2.771-.454-2.771-1.937-5a78.728 78.728 0 0 1-.125-4.938l-.008-2.714C240 685 240 685 241 683Z"/><path fill="#0773C4" d="m335.723 231.902 3.34.036 3.347.027L345 232v4l-1.938.313L341 237l-1 3h-2v-3c-1.603-.081-3.208-.14-4.813-.188l-2.707-.105c-2.532.04-2.532.04-3.96 1.773-2.678 2.678-6.315 1.997-9.926 2.114-2.63.142-2.63.142-4.01 1.89-2.73 2.612-6.533 2.294-10.147 2.578-5.735.154-5.735.154-10.437 2.938-2.544.234-4.987.35-7.535.379l-2.281.051c-2.415.054-4.83.094-7.247.132-3.157.059-6.315.123-9.472.192l-2.297.046c-3.798.09-7.524.284-11.29.79-3.377.357-6.108.218-9.44-.297-5.936-.714-11.964-.684-17.938-.856l-4.227-.13c-3.424-.106-6.848-.208-10.273-.307v-3l-3.938.063c-4.756.007-9.346-.464-14.062-1.063v-2h-3v-2h-10c2-2 2-2 4.68-2.266l3.195.016 3.18-.016c2.92.264 4.426.873 6.945 2.266 2.325.387 4.659.73 7 1v2l3.128-.093c3.614.087 6.356.622 9.817 1.573 9.519 2.14 19.025 1.933 28.74 1.856 3.177-.023 6.353-.02 9.53-.014 18.631.257 18.631.257 36.785-3.322 2.646-.362 5.285-.696 7.938-1 6.093-.658 6.093-.658 12.062-2v-2l1.82-.443c2.707-.661 5.412-1.328 8.118-1.994l2.865-.698 2.724-.674 2.524-.618c2.743-.806 2.563-1.56 5.672-1.67Z"/><path fill="#0486DB" d="m791.602 773.867 2.484-.004 2.539.012 2.563-.012 2.476.004 2.233.004c2.103.129 2.103.129 3.971.608 2.857.698 5.642.816 8.577.986l3.762.236c2.62.158 5.24.312 7.86.461l3.753.24 3.446.203C838 777 838 777 840 779l-3.371-.219c-13.106-.76-26.192-.893-39.317-.906l-2.607-.008c-9.457-.022-18.9.097-28.35.516l-2.457.092c-4.417.074-4.417.074-7.898 2.525-2.688.27-5.291.087-8 0v-1l2.875-.938c2.986-.936 2.986-.936 5.125-2.062 1.813-.21 3.633-.368 5.453-.5l3.317-.25 3.48-.25c2.255-.164 4.51-.33 6.766-.5l3.04-.219c2.977-.248 2.977-.248 6.03-.804 2.568-.42 4.92-.606 7.516-.61Z"/><path fill="#086CBB" d="m335.723 231.902 3.34.036 3.347.027L345 232v4l-1.938.313L341 237l-1 3h-2v-3c-1.603-.081-3.208-.14-4.813-.188l-2.707-.105c-2.532.04-2.532.04-3.96 1.773-2.678 2.678-6.315 1.997-9.926 2.114-2.631.15-2.631.15-4.082 1.894-2.212 2.212-4.136 2.02-7.2 2.2l-3.011.199L300 245v-2l12-3v-2l1.82-.443c2.707-.661 5.412-1.328 8.118-1.994l2.865-.698 2.724-.674 2.524-.618c2.743-.806 2.563-1.56 5.672-1.67Z"/><path fill="#0777C9" d="M128 217c6.166-.378 10.364.182 16 3 3.74 1.632 7.459 3.164 11.313 4.5C159 226 159 226 161 229c2.324.682 4.611 1.008 7.004 1.375L170 231l1 3 2.25.313c2.941.735 4.411 1.823 6.75 3.687-1.94-.256-3.877-.53-5.813-.813l-3.269-.457c-3.092-.774-3.847-1.464-5.918-3.73l-3.5-.5c-3.794-.542-4.085-.875-6.5-3.5-3.1-1.2-3.1-1.2-6-2v-2l-3.375-.313L142 224l-2-3c-2.886-.585-2.886-.585-6.125-.688l-3.32-.199L128 220v-3Z"/><path fill="#096ABA" d="M256 834h1c.293 5.957.293 5.957 0 8l-3 3 2-11Zm-4 11 2 1a260.428 260.428 0 0 1-.313 4.75l-.175 2.672c-.585 2.946-1.71 4.222-3.512 6.578-.707 2.507-.707 2.507-1.063 5.125-.726 4.664-.726 4.664-2.937 6.875l-1 3c-1 3-1 3-3 5a243.91 243.91 0 0 0-2.21 5.832c-3.079 8.457-3.079 8.457-5.79 11.168-.463 2.662-.463 2.662-.625 5.625l-.227 3.04L233 908h-1a531.951 531.951 0 0 1-.125-5.875l-.07-3.305C232 896 232 896 234 894a59.004 59.004 0 0 0 1.5-3.938c.954-2.774 1.832-4.56 3.5-7.062.942-2.637 1.78-5.298 2.617-7.969 1.422-4.41 3.047-8.65 4.883-12.906 2.38-5.595 4.07-11.221 5.5-17.125Z"/><path fill="#048ADF" d="M794 182h1a1174.99 1174.99 0 0 1-.375 8.063c-.03.752-.062 1.504-.094 2.279-.252 4.848-1.187 8.974-2.531 13.658-.963 6.687-1.149 13.364-1.133 20.11l-.003 2.815c0 1.953.001 3.906.006 5.86.005 2.944 0 5.888-.007 8.832-.003 10.176.184 20.244 1.137 30.383l-2-1c-1.448-8.104-1.184-16.649-1.238-24.86l-.025-3.6c-.013-2.497-.024-4.995-.032-7.492-.012-2.525-.032-5.05-.062-7.574-.296-25.399-.296-25.399 3.395-37.284 1.022-3.39 1.538-6.68 1.962-10.19Z"/><path fill="#038EE4" d="M255 744c3.181 4.772 4.248 9.104 4.275 14.8l.029 3.39-.003 3.626.013 3.782c.006 2.64.007 5.28.002 7.92-.005 2.684.002 5.367.02 8.05.025 3.896.029 7.79.027 11.686l.028 3.584c-.044 8.075-1.268 15.376-3.391 23.162h-1a256.064 256.064 0 0 1-.125-4.188l-.07-2.355c.195-2.457.195-2.457 1.19-4.446 1.508-4.52 1.29-8.913 1.27-13.648.003-1.034.004-2.069.006-3.135.002-2.188-.002-4.376-.01-6.564-.01-3.322 0-6.644.012-9.967a5240.62 5240.62 0 0 0-.007-6.396l.012-2.978c-.037-5.558-.563-10.666-1.838-16.081-.678-3.454-.57-6.733-.44-10.242Z"/><path fill="#0485D9" d="M250 850c.845 2.4 1.11 3.654.328 6.113l-1.078 2.2-1.133 2.386L247 863c-1.549 3.455-2.924 6.726-3.938 10.375-1.296 4.423-3.14 8.446-5.062 12.625a3493.253 3493.253 0 0 0-3.168 7.25C234 895 234 895 233 896a144.504 144.504 0 0 0-.563 6.063l-.253 3.347L232 908h-1c-1.067-14.998-1.067-14.998 4.54-21.934 2.058-2.912 2.523-5.738 3.038-9.218C239 875 239 875 241 873c.68-2.041 1.356-4.085 2.004-6.137 2-5.75 4.547-11.292 6.996-16.863Z"/><path fill="#0778CB" d="M838 777a99.984 99.984 0 0 1 5 0l1 1c3.123.17 6.238.297 9.365.342 3.412.143 5.272.354 7.928 2.576L863 783l3 2c-5.51.3-9.516-.301-14.68-2.2-3.695-1.274-7.493-2.03-11.32-2.8v-2l-2-1Z"/><path fill="#056EBE" d="M800 313h1v5h2c1.784 3.062 2.229 5.22 2.125 8.75l-.055 2.422L805 331h3v10h-4v-5l-3-1v-2h3l-1-10h-3v-10Z"/><path fill="#048AE0" d="M342 227c3.625.375 3.625.375 7 1v5l-3.324-.035-4.363-.028-2.186-.025c-3.843-.017-7.393.153-11.127 1.088.938-1.938.938-1.938 3-4 2.33-.457 4.57-.625 6.941-.727 2.282-.09 2.282-.09 4.059-2.273Z"/><path fill="#067CCF" d="M800 165c0 3.387-.597 6.315-1.313 9.625l-.738 3.54L797 181l-3 1 .125 2.973c0 4.355-.992 8.282-2.125 12.464l-.578 2.217A792.618 792.618 0 0 1 790 205h-1c-.25-7.51-.25-7.51.95-9.855 1.851-3.78 1.906-8.006 2.39-12.149.714-3.243 1.352-3.82 3.66-5.996.716-2.43.716-2.43 1.063-5.063.729-4.729.729-4.729 2.937-6.937Z"/><path fill="#0769B6" d="M341.625 231.875 345 232v4l-1.938.313L341 237l-1 3h-2v-3l-3.875.125c-2.18.07-2.18.07-4.125-.125l-2-2 3.875-.375c4.165-.403 5.556-2.605 9.75-2.75Z"/><path fill="#056BB6" d="M708 784h3v3h9v1l-3.438.375L713 789l-1 2h-9l1-4h4v-3Z"/><path fill="#00B0FD" d="M1013 536h4c.027 1.604.046 3.208.063 4.813l.035 2.707C1017 546 1017 546 1016 549h-3v-13Z"/><path fill="#0679CC" d="M335.563 231.938 338 232c-2 3-2 3-4.313 3.66l-2.687.403c-3.954.51-3.954.51-7 2.937-2.82.195-2.82.195-6.125.125l-3.32-.055L312 239v-1l1.82-.443c2.707-.661 5.412-1.328 8.118-1.994l2.865-.698 2.724-.674 2.524-.618c2.656-.78 2.548-1.563 5.512-1.636Z"/><path fill="#0968B8" d="M786 226h1c.369 14.781.369 14.781-2 21h-1c-.058-3.125-.094-6.25-.125-9.375l-.05-2.695-.02-2.578-.032-2.38C784 228 784 228 786 226Z"/><path fill="#067BCD" d="M239 879c.75 1.563.75 1.563 1 4-.936 1.776-1.883 3.55-2.945 5.254-1.3 2.151-2.16 4.403-3.055 6.746l-1 1a144.504 144.504 0 0 0-.563 6.063l-.253 3.347L232 908h-1c-.95-11.167.154-16.872 7-26l1-3Z"/><path fill="#0486DA" d="M255 744c3.8 5.7 4.281 10.74 4.125 17.375l-.027 2.23c-.024 1.799-.06 3.597-.098 5.395h-1c-.509-2.665-1.007-5.332-1.5-8l-.434-2.254c-.912-4.998-1.205-9.665-1.066-14.746Z"/><path fill="#048ADF" d="m295.25 241.875 2.258.027c1.83.024 3.661.06 5.492.098v1l-2.16.148c-4.266.333-8.175.647-12.277 1.915-5.177 1.362-10.24 1.094-15.563.937v-1l2.047-.148 2.703-.227c.882-.07 1.763-.14 2.672-.21 2.543-.255 2.543-.255 4.39-1.446 3.38-1.497 6.814-1.177 10.438-1.094Z"/><path fill="#0487DB" d="M809 140h1c.338 4.851-.519 6.927-3 11a199.514 199.514 0 0 0-2.688 6.813l-1.324 3.519L802 164c-1.19-3.706-.564-5.461 1.098-8.984 1.595-3.564 2.714-7.3 3.902-11.016h2v-4Z"/><path fill="#056CBA" d="m242 683 3 1c.97 5.93.893 11.064 0 17h-1v-10h-3l1-8Z"/><path fill="#0582D6" d="M258 811h1c.055 1.395.093 2.791.125 4.188l.07 2.355c-.224 2.822-1.114 4.85-2.195 7.457a123.024 123.024 0 0 0-1.125 5.813l-.508 2.957L255 836h-1c-.22-6.025.506-11.175 2-17l.578-2.348c.466-1.886.943-3.77 1.422-5.652Z"/><path fill="#067ACC" d="M296.188 242.938 300 243v1l-3.313.375c-3.76.38-3.76.38-6.687 2.625-1.901.227-1.901.227-4.012.195l-2.295-.02-2.38-.05-2.417-.027c-1.965-.024-3.93-.06-5.896-.098v-1l3.395-.402 4.418-.536 2.236-.263c4.49-.549 8.628-1.935 13.139-1.862Z"/><path fill="#0485DA" d="M185 238c7.874-.262 7.874-.262 12 2 2.325.387 4.659.73 7 1v1c-1.77.054-3.541.093-5.313.125l-2.988.07C193 242 193 242 190 240a75.316 75.316 0 0 0-5-1v-1Z"/><path fill="#008CFB" d="M456 996v4c-5.538.37-5.538.37-7.875-1.5L447 997c3.196-1.065 5.657-1.074 9-1Z"/><path fill="#086EBC" d="M128 217h9v2l2 1h-11v-3Z"/><path fill="#0486DB" d="M171 233c1.605.114 3.209.242 4.813.375.893.07 1.786.14 2.707.21C181 234 181 234 184 236v2c-4.847-.591-8.607-1.98-13-4v-1Z"/><path fill="#0089FE" d="M148 996h4c-1.44 3.362-3.248 5.592-6 8h-2v-4l4-2v-2Z"/><path fill="#00BCFA" d="M856 532v7l-4 2c-.368-5.52-.368-5.52 1.438-7.875C855 532 855 532 856 532Z"/><path fill="#0562A3" d="M341 233h5l-2 4h-3l-1 3h-2v-3l2-1 1-3Z"/><path fill="#0488DD" d="M803 318c2.965 2.445 3.556 4.446 4.188 8.188l.48 2.73L808 331h-3l-.184-1.828-.254-2.422c-.08-.789-.162-1.578-.246-2.39-.292-2.184-.737-4.237-1.316-6.36Z"/><path fill="#007AFB" d="M482 1001h10v3c-4.94.337-5.785.161-10-3Z"/><path fill="#0582D6" d="M253 836h1c-.964 9.41-.964 9.41-2 14h-1c-.369-9.41-.369-9.41 2-14Z"/><path fill="#048AE0" d="M748 781v1c-4.33 1.3-8.515 2.344-13 3 4.377-4.377 7.112-4.4 13-4Z"/><path fill="#0366A3" d="M765 736h2v3l-2 1-1 3-4-1a158.814 158.814 0 0 1 5-6Z"/><path fill="#0488DD" d="M244 704c2.042 1.692 2.918 2.637 3.512 5.262l.175 2.426.2 2.449L248 716c-2-1-2-1-3.125-4.313C244 708 244 708 244 704Z"/><path fill="#00AFFE" d="M660 811v4h-5v-3c2-1 2-1 5-1Z"/><path fill="#00BCFE" d="m369 43 3 1-4 4-3-2c1.813-1.563 1.813-1.563 4-3Z"/><path fill="#00BEFE" d="m565 1000-1 2h-3v2l-4-1c2.466-3.115 4.108-3.316 8-3Z"/><path fill="#00B3FE" d="M593 996h5l-1 3-5 1 1-4Z"/><path fill="#086DBD" d="M811 772c2.343.256 4.678.593 7 1l1 2-9-1 1-2Z"/><path fill="#0076CB" d="m807 344 5 1v4c-1.938-.813-1.938-.813-4-2l-1-3Z"/><path fill="#008FFE" d="M22 112h1l1 9-3-2c-.25-3.063-.25-3.063 0-6l1-1Z"/></svg>