<?xml version="1.0" encoding="UTF-8" standalone="no" ?>
<!DOCTYPE svg PUBLIC "-//W3C//DTD SVG 1.1//EN" "http://www.w3.org/Graphics/SVG/1.1/DTD/svg11.dtd">
<svg xmlns="http://www.w3.org/2000/svg" xmlns:xlink="http://www.w3.org/1999/xlink" version="1.1" width="1080" height="1080" viewBox="0 0 1080 1080" xml:space="preserve">
<desc>Created with Fabric.js 5.2.4</desc>
<defs>
</defs>
<g transform="matrix(1 0 0 1 540 540)" id="6887abd4-e002-46c2-bc5e-3257779a260f"  >
<rect style="stroke: none; stroke-width: 1; stroke-dasharray: none; stroke-linecap: butt; stroke-dashoffset: 0; stroke-linejoin: miter; stroke-miterlimit: 4; fill: rgb(255,255,255); fill-rule: nonzero; opacity: 1; visibility: hidden;" vector-effect="non-scaling-stroke"  x="-540" y="-540" rx="0" ry="0" width="1080" height="1080" />
</g>
<g transform="matrix(1 0 0 1 540 540)" id="57b41c36-b985-4fb6-a82a-d2ffe022c668"  >
</g>
<g transform="matrix(1 0 0 1 540 540)"  >
<g style="" vector-effect="non-scaling-stroke"   >
		<g transform="matrix(1 0 0 1 0 0)"  >
<path style="stroke: none; stroke-width: 1; stroke-dasharray: none; stroke-linecap: butt; stroke-dashoffset: 0; stroke-linejoin: miter; stroke-miterlimit: 4; fill: rgb(74,72,181); fill-rule: nonzero; opacity: 1;" vector-effect="non-scaling-stroke"  transform=" translate(-522.36, -511.57)" d="M 125 8 L 141 8 L 141 11 L 144 11 L 145 15 L 146.813 15.313 C 149.35999999999999 16.113 150.415 16.861 152 19 L 152 23 L 157 24 L 157 27 L 161 28 L 161 31 L 165 32 L 165 35 L 169 36 L 169 39 L 172 40 L 173 42 C 175.017 43.134 175.017 43.134 177 44 L 177 47 L 181 48 L 181 51 L 185 52 L 185 55 L 189 56 L 189 59 L 193 60 L 193 63 L 197 64 L 197 67 L 201 68 L 201 71 L 202.938 71.375 L 205 72 L 206 74 C 207.97466703556248 75.04988343055736 209.9752930342166 76.05019642988442 211.99999999999997 76.99999999999999 L 212 79 L 217 80 L 217 83 L 224 83 L 225 87 L 238 88 L 239 91 L 264 90 L 265 88 C 267.723 87.367 267.723 87.367 271.063 86.875 L 274.40999999999997 86.367 L 277 86 L 278 83 L 280.813 82.687 C 284.203 81.957 284.733 81.37 287 79 L 291 79 L 293 75 L 298 75 L 298 73 C 301.228 70.848 302.284 70.8 306 71 L 307 68 C 308.742 67.121 308.742 67.121 310.875 66.437 C 313.709 65.512 315.452 64.699 318 63 C 319.628 62.535 321.256 62.073 322.89 61.633 C 330.57 59.414 330.57 59.414 337 55 C 339.688 54.73 342.291 54.913 345 55 L 346 51 L 347.863 50.887 L 350.313 50.687 L 352.738 50.512 C 355.408 49.908 356.15 48.937 358 47 C 360.332 46.66 362.666 46.328 365 46 L 366.875 44.437 C 370.29 42.126999999999995 373.995 42.769 378 43 L 379 40 C 381.617 39.121 381.617 39.121 384.875 38.437 C 388.588 37.646 390.812 37.126 394 35 C 397.033 34.663 400.041 34.559 403.09 34.441 C 406.017 34.24 406.017 34.24 407.938 32.496 C 411.668 29.791000000000004 416.318 30.519000000000002 420.78499999999997 30.406000000000002 C 423.972 30.351000000000003 423.972 30.351000000000003 425.409 28.493000000000002 C 427.54699999999997 26.486 428.775 26.652 431.668 26.707 L 434.373 26.737000000000002 C 435.30199999999996 26.761000000000003 436.231 26.787000000000003 437.188 26.813000000000002 L 440.038 26.853 C 442.358 26.889000000000003 444.67900000000003 26.938000000000002 447 27 L 448 24 C 450.87 22.565 453.335 22.887999999999998 456.54 22.902 L 460.48400000000004 22.912000000000003 L 464.62500000000006 22.938000000000002 C 469.41670002686874 22.95002950248968 474.2083744779159 22.97069620273062 479.0000000000002 22.9999999999999 L 480 19.999 C 483.9300695325954 19.27160276517989 487.90795182259683 18.83176970404378 491.902 18.682999999999996 L 495.312 18.555 L 498.937 18.436 L 502.725 18.31 C 519.355 17.791999999999998 535.931 17.895999999999997 552.562 18.374 L 556.332 18.467 L 559.879 18.584999999999997 L 563.022 18.679999999999996 C 566.394 19.040999999999997 570.5 19.499999999999996 573 21.998999999999995 C 574.964 22.120999999999995 576.931 22.178999999999995 578.898 22.208999999999996 C 580.1 22.238999999999997 581.301 22.266999999999996 582.539 22.295999999999996 C 585.0889999999999 22.347999999999995 587.638 22.391999999999996 590.188 22.428999999999995 L 593.836 22.521999999999995 L 597.196 22.581999999999994 C 600.392 23.056999999999995 600.883 23.733999999999995 603 25.998999999999995 C 605.167 26.468999999999994 605.167 26.468999999999994 607.563 26.439999999999994 L 610.227 26.519999999999992 L 613 26.560999999999993 C 614.813 26.595999999999993 616.625 26.638999999999992 618.438 26.690999999999992 L 620.871 26.72799999999999 C 623 27 623 27 626 29 L 626 31 L 628.957 30.93 L 632.813 30.875 L 636.645 30.805 C 640 31 640 31 643 33 L 643 35 L 645.887 34.895 L 649.6869999999999 34.812000000000005 L 653.4489999999998 34.70700000000001 C 657.2589999999998 35.02100000000001 658.8839999999998 35.90700000000001 661.9999999999999 38.00000000000001 C 664.1609999999998 38.650000000000006 664.1609999999998 38.650000000000006 666.2499999999999 39.00000000000001 L 669.9999999999999 40.00000000000001 L 670.9999999999999 43.00000000000001 L 673.3359999999999 42.89500000000001 L 676.3749999999999 42.81200000000001 L 679.3979999999999 42.707000000000015 L 682 43 L 684 46 C 686.425 46.582 686.425 46.582 689.125 46.688 L 691.883 46.887 L 694 47 L 695 51 L 698.75 50.812 C 702.61 50.806 703.993 51.556999999999995 707 54 C 709.646 54.846 712.28 55.41 715 56 L 715 59 L 718.188 58.812 C 722.313 59.015 723.628 59.808 727 62 L 730.75 63 L 734 64 L 735 67 L 743 68 L 743 71 L 745.813 70.812 C 749.543 71.032 749.571 71.474 752 74 L 755.625 75 L 759 76 L 760 79 L 767 80 L 767 83 L 772 84 L 772 87 L 779 88 L 780 91 L 782.375 91.438 C 785 92 785 92 787 93 L 787 95 L 792 96 L 792 99 L 798 100 L 799 103 C 801.015 103.733 801.015 103.733 803 104 L 804 108 L 808 108 L 808 111 L 815 112 L 816 115 L 819 115 L 820 109 L 824 108 L 824 103 L 827 103 L 827.313 100.125 C 828 97 828 97 831 95 C 832.192 92.95 832.192 92.95 833 91 L 835 91 L 835.688 88.875 C 837.338 85.259 839.2909999999999 82.912 842 80 L 844 80 L 844.813 78.062 C 846 76 846 76 849 75 L 849 72 L 852 72 L 852.762 70.215 C 854.155 67.724 855.621 66.37700000000001 857.8119999999999 64.562 C 860.257 62.506 862.4739999999999 60.504 864.6869999999999 58.187999999999995 C 867.0569999999999 55.946 868.9129999999999 54.97 871.9999999999999 53.99999999999999 L 871.9999999999999 50.99999999999999 L 873.9999999999999 50.99999999999999 L 874.8749999999999 49.18699999999999 C 876 47 876 47 878 44 L 880 44 L 881 40 L 884 40 L 884.313 38.062 L 885 36 L 888 35 L 889 32 L 892 32 L 893 28 L 897 27 L 897 24 C 898.813 21.812 898.813 21.812 901 20 L 904 20 L 906 15 L 909 15 L 909 12 L 912 12 L 914 8 L 924 8 L 925 10 C 927.017 11.134 927.017 11.134 929 12 L 929 15 L 933 16 L 933 19 L 936 19 L 936 23 L 941 24 L 941 27 L 944 27 L 945 31 L 949 32 L 949 35 L 953 36 L 953 39 L 957 41 L 957 43 L 961 44 L 961 47 L 964 47 L 964 51 L 969 52 L 969 55 L 970.938 55.313 L 973 56 L 974 59 L 977 60 L 977 63 L 981 64 L 981 67 L 984 67 L 985 71 L 989 72 L 989 75 L 993 76 L 993 79 L 997 80 L 997 83 L 1001 84 L 1001 88 L 1005 88 L 1005 91 L 1009 92 L 1009 95 L 1012 95 L 1013 99 L 1017 100 L 1017 103 L 1021 104 L 1021 108 L 1024 108 L 1024 132 L 1021 132 L 1019 136 L 1017 136 L 1016 140 L 1013 140 L 1011 144 L 1009 144 L 1008.687 145.938 L 1008 148 L 1005 149 L 1004 152 L 1001 152 L 999 156 L 997 156 L 996 160 L 993 160 L 991 164 L 989 164 L 988.687 165.938 L 988 168 L 985 169 L 984 172 L 981 172 L 980 176 L 977 176 L 976 180 L 973 180 L 971 184 L 969 184 L 968.687 185.938 L 968 188 L 965 189 L 964 192 L 961 192 L 961 196 C 959.7086793314668 197.37469432624587 958.3746943262458 198.70867933146675 957 200 C 955.765 202.133 955.765 202.133 955 204 L 953 204 L 952 211 L 949 212 L 949.105 213.863 L 949.187 216.313 L 949.293 218.738 C 949 221 949 221 947.507 222.245 C 945.2679999999999 224.852 945.612 226.957 945.602 230.348 L 945.59 234.119 L 945.625 238.063 L 945.59 242.018 L 945.602 245.785 L 945.612 249.25 L 946 252 L 949 254 C 949.293 256.383 949.293 256.383 949.188 259.125 L 949.105 261.883 L 949 264 L 952 264 L 953 272 L 956 273 L 956.25 276.375 L 957 280 C 958.933 281.092 958.933 281.092 961 282 C 962 284.625 962 284.625 963 288 C 965.385 293.408 965.385 293.408 969 298 L 969.438 300.438 C 969.746 303.05 969.746 303.05 971.563 304.375 C 973.871 306.985 973.189 309.669 973 313 L 976 314 C 977.158 317.473 977.069 320.36 977 324 L 981 325 L 981.375 328.438 L 982 332 L 984 333 C 984.89 335.815 985.538 338.659 986.219 341.531 L 987 344 L 989 345 L 989 354 L 992 355 C 993.533 358.066 993.336 361.296 993.523 364.688 C 993.793 367.37 993.793 367.37 997 369 C 997.293 371.82 997.293 371.82 997.188 375.125 L 997.105 378.445 L 997 381 L 998.965 381.637 L 1001 383 C 1001.504 385.645 1001.504 385.645 1001.563 388.813 C 1001.639 393.351 1001.639 393.351 1003.461 397.40999999999997 C 1005.477 400.80299999999994 1005.665 403.71599999999995 1006.062 407.62499999999994 C 1006.545 413.15599999999995 1006.545 413.15599999999995 1009 417.99999999999994 C 1009.319 420.0849999999999 1009.319 420.0849999999999 1009.414 422.44999999999993 L 1009.531 425.0179999999999 L 1009.625 427.68799999999993 L 1009.742 430.3929999999999 C 1009.836 432.5949999999999 1009.9219999999999 434.7969999999999 1010 436.99999999999994 L 1012 437.99999999999994 C 1013.048 441.73199999999997 1013.16 445.39399999999995 1013.246 449.25399999999996 L 1013.346 452.842 C 1013.407 455.32599999999996 1013.464 457.81 1013.518 460.29499999999996 L 1013.621 463.87899999999996 L 1013.697 467.14699999999993 C 1014.002 470.01399999999995 1014.69 471.4869999999999 1016 473.99999999999994 C 1016.874 478.25199999999995 1017.126 482.2939999999999 1017.13 486.62899999999996 L 1017.139 490.563 L 1017.133 494.777 C 1017.1390563367987 499.27333181705546 1017.1383896693865 503.76967017657 1017.1309999999996 508.26600000000013 C 1017.1250000000001 512.151 1017.128 516.036 1017.1340000000001 519.92 C 1017.1380000000001 522.9219999999999 1017.1360000000001 525.924 1017.1340000000001 528.925 C 1017.1340000000001 530.357 1017.1340000000001 531.789 1017.1360000000001 533.2199999999999 C 1017.1390000000001 535.228 1017.1340000000001 537.2349999999999 1017.1290000000001 539.242 L 1017.1270000000002 542.693 C 1016.9240000000002 547.98 1016.3600000000001 552.2909999999999 1014.0000000000002 557 C 1013.6680000000002 559.689 1013.6680000000002 559.689 1013.6560000000002 562.613 L 1013.5660000000001 565.8960000000001 L 1013.5000000000001 569.3130000000001 C 1013.2360000000001 582.7520000000001 1013.2360000000001 582.7520000000001 1011.0000000000001 589.0000000000001 L 1009.0000000000001 589.0000000000001 L 1009.0320000000002 590.7120000000001 C 1009.0730000000002 593.267 1009.0990000000002 595.8210000000001 1009.1250000000001 598.3750000000001 L 1009.1750000000001 601.0700000000002 L 1009.195 603.6480000000001 L 1009.2270000000001 606.0280000000001 C 1009 608 1009 608 1007 610 C 1006.448 612.024 1006.448 612.024 1006.148 614.352 L 1005.758 616.93 L 1005.375 619.625 L 1004.969 622.344 C 1004.639 624.562 1004.316 626.7800000000001 1004 629 L 1001 630 L 1001.105 632.52 L 1001.187 635.813 L 1001.293 639.082 C 1000.951 642.492 1000.323 642.724 998 645 C 997.42 647.962 997.42 647.962 997.312 651.188 L 997.113 654.48 L 997 657 L 993 658 L 993 669 L 989 670 L 989 681 L 986 682 C 985.268 684.076 985.268 684.076 984.937 686.5 C 984.527 688.969 984.527 688.969 984 691 L 982 692 C 981.686 694.294 981.62 696.558 981.54 698.871 C 981 701 981 701 978.9599999999999 702.285 L 977 703 L 977 710 L 975.047 710.71 C 972.792 711.812 972.792 711.812 972.3910000000001 714.164 L 972.2500000000001 716.625 L 972.0780000000001 719.102 L 972 721 L 969 722 L 968 729 L 965 730 L 964 738 L 961 738 L 960 745 L 957 746 L 956.812 749.063 C 956.168 753.707 953.975 756.444 951 760 L 949 760 L 949 766 L 945 767 L 944 773 L 941 774 L 941 779 L 936 780 L 936 786 L 933 786 L 932 791 L 929 791 L 928.687 793.25 C 927.949 796.204 926.8770000000001 797.653 925 800 L 924 803 L 922 804 L 923 807 L 928 808 L 928 810 L 930.188 810.813 C 932.98 811.991 935.43 813.403 938 815 L 940 816 L 940 819 L 944 819 L 945 822 C 947 823.209 947 823.209 949 824 L 949 827 L 953 827 L 954 830 C 956.332 832.643 957.617 833.872 961 835 L 962 838 C 963.496 839.52 963.496 839.52 965.313 840.938 C 966.253 841.718 966.253 841.718 967.211 842.516 L 969 844 C 971.438 846.188 971.438 846.188 973 848 L 973 851 L 974.938 851.375 L 977 852 L 978 854 L 981 855 L 982 858 C 983.6592849966929 859.0122516355561 985.3259967937124 860.0122787137678 986.9999999999998 860.9999999999998 L 987 863 L 988.875 863.75 C 991.387 865.228 991.761 866.44 993 869 L 996 870 L 996 872 L 997.938 872.813 C 1000 874 1000 874 1001 877 L 1004 878 C 1005.688 879.438 1005.688 879.438 1007 881 L 1007 883 L 1009 883 L 1009 885 L 1011 885 C 1012.0123538037684 886.6592231812216 1013.0123813359896 888.3259357349235 1014 889.9999999999999 C 1016.382 892.68 1017.566 893.855 1021 895 L 1021 900 L 1024 900 L 1024 914 L 1020 916 L 1019 919 L 1017 919 L 1016.187 920.938 C 1015 923 1015 923 1012 924 L 1012 927 C 1006.651 932 1006.651 932 1004 932 L 1004 935 C 1002.187 937.188 1002.187 937.188 1000 939 L 997 939 L 995 944 L 992 944 L 992 947 C 986.651 952 986.651 952 984 952 L 984 955 L 982.062 955.313 L 980 956 L 979 959 C 976.562 961.688 976.562 961.688 974 964 L 972 964 L 972 967 L 969 967 L 967 972 L 964 972 L 963.75 973.75 C 962.774 976.678 961.365 978.052 959 980 L 956 980 L 955.875 981.688 C 954.556 985.173 951.87 986.716 949 989 L 947 992 L 944 992 L 943.75 993.75 C 942.774 996.678 941.365 998.052 939 1000 L 936 1000 L 935 1004 L 932 1004 L 932 1007 C 929.687 1009.688 929.687 1009.688 927 1012 L 924 1012 L 923 1015 L 908 1015 L 908 1012 L 904 1012 L 904 1009 L 900 1008 L 900 1004 L 896 1004 L 896 1001 L 892 1000 L 892 997 L 888 995 L 888 992 L 884 992 L 884 989 L 880 988 L 880 984 L 876 984 L 875 981 L 872 980 L 872 976 L 868 975 L 868 972 L 864 972 L 863 969 L 860 968 L 860 964 L 856 964 L 856 961 L 852 960 L 852 956 L 848 956 L 847 953 L 844 952 L 844 948 L 841.625 947.562 C 839 947 839 947 837 946 L 837 944 L 832 943 L 832 941 L 829.687 940.562 C 827 940 827 940 824 939 L 824 936 L 821.883 936.035 L 819.125 936.063 L 816.383 936.098 C 814 936 814 936 812 935 L 812 933 L 783 933 L 783 935 C 780.475 936.262 778.688 936.099 775.875 936.063 L 773.117 936.035 L 771 936 L 771 939 C 768.094 940.257 766.204 941 763 941 L 762 944 L 755 944 L 755 947 L 751.562 947.813 L 748 949 L 747 952 L 740 952 L 738 956 L 731 956 L 731 959 L 728.848 959.84 L 726.063 960.937 L 723.285 962.027 C 721.0749999999999 962.8000000000001 721.0749999999999 962.8000000000001 720 964 C 717.33 964.141 714.676 964.042 712 964 L 711 968 L 703 969 L 702 972 L 692 972 L 691 976 L 681 976 L 679 980 C 676.107 981.447 673.195 981.38 669.996 981.621 L 668 982 L 667 984 L 655 984 L 654 987 C 649.97 989.34 645.657 989.387 641.11 989.656 L 639 990 L 638 992 L 622 992 L 621 995 C 614.603 997.303 608.026 997.386 601.293 997.656 C 597.861 997.756 597.861 997.756 595 1000 C 587.686 1001.114 580.324 1001.303 572.937 1001.563 L 569.447 1001.693 C 566.632 1001.799 563.816 1001.901 561 1002 L 561 1004 C 551.29 1004.046 541.58 1004.082 531.87 1004.104 C 527.362 1004.114 522.854 1004.128 518.345 1004.1510000000001 C 513.995 1004.1730000000001 509.644 1004.1850000000001 505.293 1004.19 C 503.633 1004.1930000000001 501.973 1004.2 500.313 1004.211 C 497.988 1004.226 495.663 1004.2280000000001 493.339 1004.227 L 491.257 1004.249 C 487.617 1004.2330000000001 485.13100000000003 1003.866 482 1002 C 479.655 1001.654 479.655 1001.654 477.148 1001.621 L 474.31600000000003 1001.518 L 471.37500000000006 1001.438 C 451.18800000000005 1000.792 451.18800000000005 1000.792 447.00000000000006 998 C 444.7351493635308 997.7580904727674 442.4629013711078 997.5913322170487 440.1870000000001 997.5 C 435.4460000000001 997.297 431.37500000000006 996.936 427.00000000000006 995 L 426.00000000000006 992 L 422.35200000000003 992.035 L 417.62500000000006 992.063 L 415.21900000000005 992.088 C 409.22700000000003 992.1129999999999 409.22700000000003 992.1129999999999 407.00000000000006 991 L 407.00000000000006 989 L 404.98800000000006 989.105 C 396.18500000000006 989.375 396.18500000000006 989.375 392.00000000000006 986 L 391.00000000000006 985 C 388.98317870071844 984.7697691709376 386.96173004123 984.5820608425041 384.9370000000001 984.437 L 381.5900000000001 984.184 L 379 984 L 378 981 L 374.25 981.125 C 370.984 981.137 368.785 980.857 366 979 L 366 976 L 363.883 976.035 L 361.125 976.063 L 358.383 976.098 C 356 976 356 976 354 975 L 354 972 L 350.125 972.125 C 347.945 972.195 347.945 972.195 346 972 L 344 970 C 342.1 969.362 342.1 969.362 340 968.937 C 337.788 968.445 336.033 968.017 334 967 L 334 964 L 326 964 L 325 961 L 321.625 960.687 L 318 960 L 316 957 C 312.432 956.264 312.432 956.264 309 956 L 309 954 L 306.883 953.414 L 304.125 952.625 L 301.383 951.852 C 299 951 299 951 297 949 L 294.5 948 C 292 947 292 947 290 945 L 287.312 944.125 C 283.49600000000004 942.829 280.451 941.071 277 939 L 277 936 C 275.577 936.03 275.577 936.03 274.125 936.063 C 271 936 271 936 269 935 L 269 932 L 265 932 L 264 928 L 258 928 L 257 924 L 254.187 923.687 C 250.85000000000002 922.967 250.149 922.455 248 920 L 245 919 L 244 917 L 241 916 L 241 913 L 233 911 L 233 908 L 229 908 L 228 915 L 225 916 C 224.62753758444657 917.3232449178425 224.29406018290814 918.6571545239962 224 920 L 222 921 C 220.95011656944266 922.9746670355624 219.94980357011556 924.9752930342166 219 927 L 217 927 L 216.687 928.938 L 216 931 L 213 932 C 212.267 934.015 212.267 934.015 212 936 L 209 936 L 209 940 L 205 941 L 204.687 942.813 C 203.90200000000002 945.313 203.031 946.375 201 948 L 199 948 L 199 951 C 196.07 953.735 193.823 955.726 190 957 C 188.791 959 188.791 959 188 961 L 185 961 L 185 964 L 182 965 L 180.625 967.875 C 178.735 971.511 177.453 971.96 174 974 C 172.099 976.057 170.317 978.182 168.55 980.355 L 167 982 L 165 982 L 164.375 984.188 C 162.525 987.972 160.398 989.523 157 992 L 155 992 L 155 995 C 152.75 997.438 152.75 997.438 150 1000 L 147.812 1002.313 C 146 1004 146 1004 144 1004 L 143 1007 C 140.625 1009.688 140.625 1009.688 138 1012 L 135 1012 L 135 1014 C 131.785 1015.607 128.564 1015.057 125 1015 L 124 1012 L 120 1012 L 120 1009 L 116 1008 L 116 1004 L 112 1004 L 112 1001 L 108 1000 L 108 997 L 106.062 996.687 L 104 996 L 103 993 L 100 992 L 100 989 L 96 988 L 96 984 L 92 984 C 89.75 982.25 89.75 982.25 88 980 L 88 976 L 84 976 L 83 972 L 80 972 L 80 969 L 76 968 L 76 964 L 72 964 L 72 961 L 68 960 L 68 956 L 64 956 L 63 952 L 60 952 L 60 948 L 56 948 L 55 944 L 52 944 L 52 941 L 48 940 L 48 936 L 43 935 L 43 932 L 40 932 L 40 928 L 35 927 L 35 924 L 32 924 L 31 921 C 29 919.791 29 919.791 27 919 L 27 916 L 23 915 L 23 912 L 21 912 C 20.919 909.416 20.86 906.835 20.812 904.25 L 20.736 902.04 C 20.692 898.77 20.786 896.405 22.324 893.4839999999999 C 24 892 24 892 27 892 L 29 887 L 32 887 L 33 883 L 35 883 L 36 880 C 38.063 879.312 38.063 879.312 40 879 L 40.313 877.187 C 41.113 874.64 41.861000000000004 873.585 44 872 L 48 872 L 49 867 L 52 867 L 53 863 L 56 863 L 57 859 L 60 859 L 61 855 L 64 855 L 65 852 L 68 852 L 69 847 L 72 847 L 72 844 L 76 843 L 77 839 L 80 839 L 80.25 837.25 C 81.226 834.322 82.635 832.948 85 831 L 88 831 L 88.375 828.625 C 89 826 89 826 91 824 C 91.707 822.35 92.38 820.684 93 819 L 96 819 L 96 812 L 100 811 L 99.93 808.883 L 99.875 806.125 L 99.805 803.383 C 100 801 100 801 102 799 C 102.311 796.429 102.311 796.429 102.266 793.441 L 102.27300000000001 790.0840000000001 L 102.25000000000001 786.5630000000001 L 102.27300000000001 783.0530000000001 L 102.266 779.6910000000001 L 102.259 776.6040000000002 C 102.182 773.7640000000001 102.182 773.7640000000001 100 771.0000000000001 C 99.805 768.7380000000002 99.805 768.7380000000002 99.875 766.3120000000001 L 99.93 763.8630000000002 L 100 762 L 98 762 C 96 759 96 759 95 755.375 L 94 752 L 92 751 L 90 746 L 88 745 L 88 738 L 85 738 C 83.743 735.094 83 733.204 83 730 L 80 730 L 79.625 726.562 L 79 723 L 77 722 C 76.219 720.004 76.219 720.004 75.5 717.562 C 74.427 713.9060000000001 74.427 713.9060000000001 72 711 C 71.586 708.836 71.586 708.836 71.375 706.375 L 71.148 703.898 L 71 702 L 69 702 C 67.797 699.595 67.9 698.05 67.937 695.375 L 67.965 692.898 L 68 691 L 66.105 690.777 C 64 690 64 690 62.988 688.004 L 62.313 685.562 C 61.363 682.202 61.363 682.202 60 679 C 59.933238672787134 677.4592963921417 59.91222941955683 675.9169504208708 59.93699999999998 674.375 L 59.964999999999996 671.898 L 60 670 L 57 670 C 54.4 666.1 54.85 662.526 55 658 L 52 657 L 51.633 654.48 L 51.125 651.187 L 50.633 647.918 C 50.149 644.827 50.149 644.827 48 642 C 47.666 639.195 47.559 636.416 47.441 633.594 C 46.931000000000004 630.594 46.171 629.998 44 628 C 42.575 624.385 42.902 620.585 42.937 616.75 L 42.964999999999996 612.922 L 43 610 L 40 610 L 40 590 L 37 589 C 35.17 584.842 34.76 581.234 34.805 576.727 L 34.825 573.23 L 34.875 569.625 L 34.902 565.949 C 34.926 562.966 34.959 559.983 35 557 L 32 556 C 31.954 544.43 31.918 532.86 31.896 521.2909999999999 C 31.886 515.919 31.872 510.54799999999994 31.849 505.17599999999993 C 31.827 499.9959999999999 31.815 494.81499999999994 31.81 489.63399999999996 C 31.807 487.65399999999994 31.799999999999997 485.674 31.788999999999998 483.69399999999996 C 31.773999999999997 480.92799999999994 31.772 478.16299999999995 31.773 475.39699999999993 L 31.751 472.89699999999993 C 31.771 467.22799999999995 31.771 467.22799999999995 34 464.99999999999994 C 34.34 462.36499999999995 34.34 462.36499999999995 34.344 459.29299999999995 L 34.434000000000005 455.82599999999996 L 34.50000000000001 452.18699999999995 C 34.544000000000004 449.82699999999994 34.595000000000006 447.46599999999995 34.656000000000006 445.10499999999996 L 34.71300000000001 441.92299999999994 C 35.01200000000001 438.87999999999994 35.559000000000005 436.69499999999994 37.00000000000001 433.99999999999994 L 40.00000000000001 432.99999999999994 C 39.99000000000001 432.37399999999997 39.980000000000004 431.74899999999997 39.96800000000001 431.1039999999999 C 39.92910082370151 428.27775882700183 39.898100702626465 425.45141445499513 39.87500000000016 422.62500000000017 L 39.82500000000001 419.64099999999996 L 39.80500000000001 416.789 L 39.77300000000001 414.155 C 40 412 40 412 42 410 C 42.39 407.012 42.39 407.012 42.5 403.625 C 42.684 399.55 42.851 396.518 45 393 L 47 393 C 47.09 391.519 47.09 391.519 47.184 390.008 L 47.437999999999995 386.125 C 47.517999999999994 384.849 47.599999999999994 383.573 47.684 382.258 C 48 379 48 379 49 377 L 51 377 L 52 366 L 55 365 L 54.965 363.137 L 54.937000000000005 360.687 L 54.90200000000001 358.262 C 55 356 55 356 56 353 L 60 352 L 60 341 L 63 341 L 62.812 337.812 C 63.007999999999996 333.839 63.567 332.088 66 329 L 68 329 L 68 321 L 70 320 C 70.69 317.65 70.69 317.65 71.125 314.937 L 71.633 312.152 L 72 310 L 75 309 L 76 302 L 80 301 L 80 293 L 83 292 L 84 285 L 88 284 L 87.812 280.625 L 88 277 L 91 275 C 92.213 271.946 92.213 271.946 93 269 L 96 269 L 96 264 L 98 264 L 98 262 L 100 262 L 100 256 L 103 256 L 103.875 252.562 L 105 249 L 107 248 C 107.652 245.975 107.652 245.975 108 244 L 111 244 L 113 236 L 116 236 L 117 232 L 120 232 L 119.812 229.125 L 120 226 L 123 224 L 124 221 C 126.063 220.312 126.063 220.312 128 220 L 128 217 L 126.187 216.562 C 124.438 216.11200000000002 122.713 215.572 121 215 L 120 213 C 117.983 211.866 117.983 211.866 116 211 L 116 209 L 114.234 208.648 C 111.854 207.958 110.26899999999999 207.048 108.25 205.625 L 106.39 204.352 L 105 203 L 105 200 L 100 200 L 100 197 L 96 196 L 96 192 L 92 192 C 89.75 190.187 89.75 190.187 88 188 L 88 185 L 84 184 L 83 180 L 80 180 L 80 177 L 76 176 L 75 172 L 72 172 L 72 169 L 68 168 L 68 164 L 63 163 L 63 160 L 60 160 L 60 157 L 55 155 L 55 152 L 52 152 C 49.32 149.714 48.126 148.378 47 145 C 45 143.791 45 143.791 43 143 L 43 140 L 40 140 L 39 137 L 36 135.625 L 33 134 C 32.636 132.34 32.3 130.673 32 129 C 29.524 127.625 29.524 127.625 27 127 L 27 124 L 25.125 123.75 C 23 123 23 123 21.75 121.312 C 20.398 117.142 20.489 114.119 22.313 110.125 L 24 108 L 27 108 L 29 103 L 32 103 L 32 100 L 35 100 L 37 95 L 40 95 L 40.313 93.187 C 41.112 90.64 41.86 89.585 44 88 L 48 88 L 49 83 L 52 83 L 52 80 L 55 79 C 56.209 77 56.209 77 57 75 L 60 75 L 60 72 L 64 71 L 64 68 L 68 67 L 69 63 L 72 63 L 72 60 L 76 60 L 77 55 L 80 55 L 81 51 L 84 51 L 85 47 L 88 47 L 89 43 L 92 43 L 92 40 L 96 39 L 97 35 L 100 35 L 101 31 L 104 31 L 105 27 L 108 27 L 109 23 L 112 23 L 113 19 L 116 19 L 117 15 L 120 15 L 121 11 L 124 11 L 125 8 Z M 495 183 C 489.658 184.308 484.101 184.324 478.625 184.563 L 475.816 184.69299999999998 C 473.544 184.79899999999998 471.272 184.90099999999998 469 184.99999999999997 L 469 186.99999999999997 L 450 188.99999999999997 L 449 191.99999999999997 L 446.262 191.89499999999998 L 442.687 191.81199999999998 L 439.137 191.707 C 435.595 192.037 435.254 192.494 433 195 C 430.59 195.66 430.59 195.66 427.937 196.063 C 424.017 196.57899999999998 424.017 196.57899999999998 421 199 C 418.977 199.273 418.977 199.273 416.625 199.375 C 412.276 199.749 410.991 200.809 408 204 C 405.676 204.394 403.342 204.735 401 205 L 400 207 C 398.25 207.746 398.25 207.746 396 208.438 L 393.559 209.21499999999997 C 391.865 209.73499999999999 390.17 210.24799999999996 388.473 210.75399999999996 L 386.063 211.49999999999997 L 383.848 212.15599999999998 C 381.641 212.968 381.641 212.968 380 215.99999999999997 C 378.006 216.36599999999999 376.005 216.70099999999996 374 216.99999999999997 L 373 218.99999999999997 C 370.678 219.40699999999998 368.343 219.74399999999997 366 219.99999999999997 L 365 223.99999999999997 L 360 224.99999999999997 L 360 226.99999999999997 L 356.75 227.81299999999996 C 353.373 228.88199999999995 351.662 229.81299999999996 349 231.99999999999997 L 346 232.99999999999997 L 344 235.99999999999997 L 341 236.99999999999997 L 340 238.99999999999997 C 337.678 239.40699999999998 335.343 239.74399999999997 333 239.99999999999997 L 332.687 241.93799999999996 L 332 244 L 329 245 L 328 247 C 325.49 248.604 322.913 250.049 320.312 251.5 C 317.75100000000003 252.945 317.75100000000003 252.945 316 256 L 313 257 L 313 260 L 311.062 260.375 L 309 261 L 308 263 L 305 264 L 305 267 L 302.812 267.688 C 299.414 269.27299999999997 297.548 271.26099999999997 295 274 C 292.6 276.46 290.321 278.761 287.562 280.813 C 284.119 283.753 281.413 287.169 279 291 L 279 293 L 277 293 L 277 296 L 275.062 296.313 L 273 297 L 272 300 L 269 301 L 268 304 L 265 305 L 265 309 L 262 310 C 259.723 312.815 259.723 312.815 260 316 L 257 316 L 256.687 317.813 C 256 320 256 320 254.5 321.438 C 252.534 323.485 252.373 325.238 252 328 L 249 328 L 248.687 329.938 L 248 332 L 245 333 C 244.27 334.977 243.606 336.98 243 339 L 241 342 L 241 345 L 237 345 L 236.687 348.313 C 235.96200000000002 352.205 235.627 352.483 233 355 C 232.273 358.108 232.273 358.108 232 361 L 229 361 L 228 368 L 225 369 C 224.466 370.636 223.947 372.28 223.54 373.953 C 222.96099999999998 376.14599999999996 222.2 378.20099999999996 221.375 380.313 C 219.884 383.656 219.884 383.656 220 386 L 217 386 L 216.625 389.875 C 216.25 393.75 216.25 393.75 214 396 C 213.324 397.83 213.324 397.83 212.875 399.875 L 212.367 401.93 C 211.884 404.306 211.884 404.306 212 408 L 209 408 L 208.633 410.59 L 208.125 413.938 L 207.633 417.27799999999996 L 207 420 L 205 421 C 204.64 424.3 204.555 427.581 204.441 430.898 C 204 434 204 434 202.504 435.443 C 200.63 437.383 200.588 438.354 200.488 441.012 L 200.381 443.307 L 200.312 445.687 L 200.209 448.104 C 200.127 450.06899999999996 200.062 452.034 200 454 L 197 455 L 196.94 457.247 C 196.845 460.603 196.73499999999999 463.957 196.625 467.312 C 196.595 468.48 196.563 469.647 196.531 470.85 L 196.41400000000002 474.238 L 196.31900000000002 477.365 C 196 480 196 480 194 483 C 193.696 485.545 193.696 485.545 193.741 488.434 L 193.722 491.80100000000004 L 193.734 495.43800000000005 L 193.729 499.1700000000001 C 193.727 502.4430000000001 193.735 505.7170000000001 193.746 508.99000000000007 C 193.75 510.99800000000005 193.746 513.0050000000001 193.739 515.013 C 193.727 518.863 193.729 522.7130000000001 193.734 526.563 L 193.722 530.199 L 193.74200000000002 533.5659999999999 C 193.74200000000002 534.5459999999999 193.74400000000003 535.5249999999999 193.746 536.5329999999999 C 193.83200000000002 539.2529999999999 193.83200000000002 539.2529999999999 196 541.9999999999999 C 196.319 544.7269999999999 196.319 544.7269999999999 196.414 547.9799999999999 L 196.53099999999998 551.5059999999999 L 196.62499999999997 555.1879999999999 L 196.74199999999996 558.9039999999999 C 196.83699999999996 561.9359999999999 196.92199999999997 564.9679999999998 196.99999999999997 567.9999999999999 L 198.99999999999997 567.9999999999999 C 200.48199999999997 572.8639999999999 200.37699999999998 577.9369999999999 200.62099999999998 582.9799999999999 L 201 586 L 203 587 C 204.105 590.315 204.321 593.204 204.563 596.688 L 204.81599999999997 600.262 L 205 603 L 208 603 L 208.113 605.52 L 208.313 608.813 L 208.488 612.082 C 209.058 615.327 209.673 615.864 212 618 C 212.66 620.191 212.66 620.191 213.063 622.563 C 213.646 626.196 213.646 626.196 216 629 C 216.565 631.655 216.738 634.291 217 637 L 220 638 C 220.879 639.82 220.879 639.82 221.563 642.125 L 222.31599999999997 644.575 C 222.73799999999997 646.072 223.146 647.5740000000001 223.527 649.082 C 224.565 653.288 224.565 653.288 228 656 C 228.688 659.125 228.688 659.125 229 662 L 233 663 L 234 671 L 237 671 L 236.75 673.75 C 236.69 677.054 236.69 677.054 238.813 679.188 C 240.08850798749972 680.2495459221295 241.3803285856868 681.2913367271191 242.688 682.313 C 244.736 684.947 244.694 687.753 245 691 L 249 691 L 250 696 L 252 696 L 252.875 698.938 C 253.642 702.107 253.642 702.107 256 703 C 256.625 705.063 256.625 705.063 257 707 L 261 708 L 261.375 709.875 C 261.872 712.191 261.872 712.191 264 714 C 264.625 716.625 264.625 716.625 265 719 L 269 719 L 271 723 L 273 723 L 273 727 L 276 728 L 277 731 L 280 731 L 280.875 733.438 C 281.733 736.133 281.733 736.133 284 737 L 285 740 C 286.9794320386876 741.6911945231772 288.97958321612793 743.3579871710442 291 745 L 292 747 L 295 748 C 296.62 749.721 298.039 751.55 299.5 753.406 C 301.015 755.2679999999999 301.015 755.2679999999999 304 756 L 305 759 L 308 760 L 309 762 L 312 763 C 312.688 765.063 312.688 765.063 313 767 L 314.813 767.313 C 317 768 317 768 318.438 769.5 C 320.485 771.466 322.238 771.627 325 772 L 325 775 L 329 775 L 330 779 L 333 779 L 333 782 C 335.906 783.257 337.796 784 341 784 L 341 787 L 345 787 L 346 790 C 349.512 791.23 349.512 791.23 353 792 L 353 795 L 354.875 795.313 C 357 796 357 796 359 799 C 362.084 799.25 362.084 799.25 365 799 L 366 802 C 367.847 802.692 367.847 802.692 370 803 C 372.188 803.375 372.188 803.375 374 804 L 375 807 C 376.662 807.532 378.331 808.05 380.027 808.46 C 382.034 809.01 383.801 809.753 385.687 810.625 C 389.01800000000003 812.255 389.01800000000003 812.255 393 812 L 393 815 L 400 816 L 401 819 L 403.117 819.367 L 405.875 819.875 L 408.617 820.367 C 411 821 411 821 413 823 L 416.5 823.438 L 420 824 L 422 827 C 424.855 827.51 424.855 827.51 428.063 827.563 C 431.348 827.691 431.348 827.691 434 828 L 435 830 C 437.54 830.476 440 830.84 442.563 831.125 L 444.717 831.387 C 446.477 831.5989999999999 448.238 831.8009999999999 450 832 L 451 835 L 454.648 835.113 C 456.22400000000005 835.1790000000001 457.8 835.245 459.375 835.3130000000001 L 461.781 835.3810000000001 C 463.862 835.4780000000001 465.934 835.7300000000001 468 836.0000000000001 L 470 839.0000000000001 C 473.038 839.4630000000001 473.038 839.4630000000001 476.617 839.4060000000001 L 478.59700000000004 839.4390000000001 C 480.69000000000005 839.4730000000001 482.78200000000004 839.489 484.87500000000006 839.5000000000001 C 487.62300000000005 839.5150000000001 490.37000000000006 839.5480000000001 493.1170000000001 839.5940000000002 L 496.82400000000007 839.6150000000001 C 500 840 500 840 501.884 841.5 C 505.211 843.858 508.814 843.428 512.746 843.398 L 515.316 843.408 C 517.1070000000001 843.409 518.899 843.404 520.69 843.391 C 523.4250000000001 843.375 526.158 843.391 528.893 843.411 C 530.635 843.4079999999999 532.378 843.404 534.121 843.3979999999999 L 536.59 843.4169999999999 C 541.407 843.357 543.88 842.6329999999999 548 839.9999999999999 C 551.138 839.5679999999999 551.138 839.5679999999999 554.613 839.4879999999999 L 558.393 839.381 L 562.313 839.313 L 566.2909999999999 839.209 C 569.5269999999999 839.127 572.7629999999999 839.0569999999999 575.9999999999999 839 L 575.9999999999999 837 C 580.3549999999999 835.548 584.8139999999999 835.645 589.3709999999999 835.482 C 591.2519999999998 835.3919999999999 593.1279999999998 835.203 594.9999999999999 835 L 595.9999999999999 833 C 598.4621541246056 832.4182988912168 600.9428380918481 831.918026512773 603.4379999999999 831.5 C 608.6959999999999 830.822 608.6959999999999 830.822 612.9999999999999 828 C 615.5959999999999 827.62 618.1659999999999 827.494 620.7849999999999 827.344 L 623 827 L 624 825 C 626.504 824.367 626.504 824.367 629.563 823.875 L 632.629 823.367 L 635 823 L 636 820 L 644 819 L 644 817 L 655 815 L 655 812 L 661.055 810.633 C 663.207 810.095 663.207 810.095 665 808 C 666.9881474184906 807.5990820481602 668.9892925656959 807.2655578569593 670.9999999999999 807 L 671 805 L 672.934 804.414 L 675.438 803.625 L 677.934 802.852 C 680.178 802.192 680.178 802.192 681 800 L 688 798 L 689 796 L 691.938 795.562 L 695 795 L 697 792 C 698.9915839047379 791.308345748764 700.9917403254682 790.641626941854 703 790 L 704 788 C 706.063 787.375 706.063 787.375 708 787 L 708 784 L 709.813 783.562 C 711.562 783.112 713.287 782.572 715 782 L 716 780 L 719 779 L 719 776 L 721.625 775.25 C 725.229 773.915 727.98 772.373 731 770 L 731 767 L 736 766 L 737 763 C 738.522 761.188 739.695 760.132 741.875 759.187 C 744.985 757.45 746.743 754.72 749 752 L 752 751 L 754 748 L 756.25 746.812 C 759.554 744.635 761.32 742.149 763.57 738.937 C 764.927 737.098 766.3610000000001 735.587 768 734 C 770.998 730.908 770.998 730.908 772 727 L 775 727 L 775.875 725.062 C 777 723 777 723 779 722 L 779 719 L 780.875 718.875 L 783 718 C 783.73 716.023 784.394 714.02 785 712 C 786.375 710.437 786.375 710.437 788 709 C 790.998 705.908 790.998 705.908 792 702 L 795 701 C 795.7025031637775 699.347892358626 796.3693246073051 697.680838749807 797 696 L 799 695 L 800 692 C 802.063 691.312 802.063 691.312 804 691 L 804 683 L 807 683 L 807.25 681.25 C 808 679 808 679 810.063 677 C 812.463 674.985 812.463 674.985 812 671 L 815 671 L 816 663 L 819 662 C 819.68 660.004 820.346 658.004 821 656 L 824 654 C 824.368 651.672 824.702 649.338 825 647 L 827 646 C 827.395 643.676 827.722 641.34 828 639 C 828.309 637.66 828.63 636.323 829 635 L 832 635 L 832.375 631.187 C 832.699 627.897 833.066 626.9010000000001 835 624 C 835.59 621.666 836.008 619.33 836.438 616.96 L 837 615 L 839 614 C 839.657 611.291 839.657 611.291 840.063 608.125 C 840.529 604.925 840.977 602.07 842 599 L 844 599 L 844.148 596.41 L 844.375 593.063 C 844.445 591.96 844.515 590.858 844.585 589.723 L 845 587 L 847 586 C 847.434 582.927 847.434 582.927 847.563 579.312 C 847.7959999999999 574.796 848.173 570.448 849 566 L 852 566 L 852.06 563.186 C 852.1379999999999 559.746 852.2249999999999 556.306 852.3169999999999 552.866 C 852.3559999999999 551.376 852.3909999999998 549.886 852.4219999999999 548.396 C 852.4669999999999 546.256 852.5249999999999 544.116 852.5859999999999 541.976 L 852.6809999999999 538.073 C 853 535 853 535 855 533 C 855.188 529.95 855.255 526.992 855.23 523.941 L 855.23 521.214 C 855.226 519.3080000000001 855.2180000000001 517.402 855.206 515.4970000000001 C 855.188 512.5770000000001 855.186 509.65900000000005 855.186 506.74000000000007 C 855.181 504.89000000000004 855.1750000000001 503.04100000000005 855.168 501.1910000000001 L 855.165 498.5400000000001 L 855.145 496.0730000000001 L 855.134 493.9030000000001 C 855.064 491.77600000000007 855.064 491.77600000000007 854 489.00000000000006 L 852 489.00000000000006 L 852.048 486.29400000000004 C 852.098 482.97800000000007 852.136 479.66400000000004 852.165 476.34700000000004 C 852.18 474.913 852.1999999999999 473.478 852.226 472.04400000000004 C 852.263 469.98100000000005 852.28 467.91900000000004 852.293 465.855 L 852.341 462.095 C 851.967 458.701 851.545 458.07500000000005 849 456 C 847.813 452.44 847.649 449.027 847.437 445.312 L 847.307 443.18600000000004 C 847.201 441.45700000000005 847.1 439.72900000000004 847 438.00000000000006 L 844 437.00000000000006 L 844.105 434.26200000000006 L 844.187 430.68700000000007 L 844.293 427.13700000000006 C 843.962 423.59100000000007 843.508 423.25700000000006 841 421.00000000000006 C 840.27 418.52000000000004 840.27 418.52000000000004 839.812 415.81200000000007 L 839.332 413.08200000000005 L 839 411 L 837 411 L 836.633 408.883 L 836.125 406.125 L 835.633 403.383 C 835.1700000000001 400.835 835.1700000000001 400.835 833 399 C 832.586 396.617 832.586 396.617 832.375 393.875 L 832.148 391.117 L 832 389 L 829 389 L 828.633 387.102 L 828.125 384.625 L 827.633 382.165 C 827.133 379.81300000000005 827.133 379.81300000000005 825 378 C 824.699 375.693 824.622 373.418 824.54 371.094 L 824 369 C 822.03 367.895 822.03 367.895 820 367 C 819.25 363.875 819.25 363.875 819 361 L 816 361 L 815 354 L 812 353 L 812 349 C 810.6875839770286 347.64591215698465 809.3540878430153 346.3124160229714 808 345 C 807.25 342.75 807.25 342.75 807 341 L 804 341 L 804.188 338.687 C 804.245 335.979 804.245 335.979 802.625 334.187 C 801.066 332.803 801.066 332.803 799 333 L 799 329 C 797.73 327.479 797.73 327.479 796 326 C 793.34 322.95 791.968 320.87 791 317 L 788 316 L 787 313 L 785 312 L 784.562 310.125 C 783.895 307.603 783.018 306.615 781 305 L 779 305 L 778 301 L 776 301 L 775 297 L 771 296 L 771 293 L 768 291 L 767 288 L 764 288 L 764 285 L 761 284 L 760 281 C 757.985 280.267 757.985 280.267 756 280 L 756 277 L 754.25 276.312 C 750.858 274.334 748.745 271.49 747 268 L 744 267 L 743 265 L 740 264 L 739 261 C 737.214 259.331 737.214 259.331 735.062 257.812 L 732.91 256.207 C 731.0949999999999 254.822 731.0949999999999 254.822 729 255 L 729 253 L 727.125 252.187 C 725 251 725 251 723 248 L 720 247 L 719 245 L 716 244 C 714.812 241.937 714.812 241.937 714 240 L 708 240 L 707 237 L 704 236 L 703 233 L 696 232 L 695 229 C 692.2011498028533 227.39644372738437 689.2487533878115 226.07719522149142 686.187 225.062 C 684 224 684 224 683.188 221.875 L 683 220 L 675 220 L 675 217 L 668 216 L 667 212 L 663.625 211.625 C 660 211 660 211 658 209 C 655.573 208.32 655.573 208.32 652.875 207.875 L 650.117 207.367 L 648 207 L 648 205 L 646.102 204.668 L 643.625 204.18800000000002 L 641.165 203.73000000000002 C 639 203 639 203 637 200 C 634.835 199.494 634.835 199.494 632.437 199.437 C 629.997 199.30900000000003 629.997 199.30900000000003 628 199 L 627 197 C 624.42 196.31 624.42 196.31 621.437 195.875 L 618.371 195.367 L 616 195 L 615 192 L 611.754 191.852 L 607.562 191.625 C 606.855 191.595 606.148 191.563 605.42 191.531 C 603.608 191.427 601.8019999999999 191.221 600 191 L 599 189 C 597.066 188.532 597.066 188.532 594.746 188.367 L 592.158 188.113 L 589.438 187.875 L 586.705 187.613 C 584.4707544640643 187.40049669384635 582.2357395290279 187.19616199508744 580 186.99999999999983 L 580 185 L 578.307 184.94 C 575.725 184.843 573.144 184.734 570.562 184.625 C 569.684 184.595 568.806 184.563 567.9 184.531 C 552.865 183.865 552.865 183.865 549 180 C 546.854 179.687 546.854 179.687 544.354 179.725 L 541.431 179.696 L 538.2610000000001 179.69899999999998 L 535.0110000000001 179.68599999999998 C 532.7370042719873 179.68029204789346 530.4629986839117 179.67962537958815 528.1889999999996 179.68399999999957 C 524.7120000000001 179.68699999999995 521.2360000000001 179.66399999999996 517.7590000000001 179.63899999999998 C 515.5520000000001 179.636 513.3440000000002 179.636 511.1370000000001 179.63699999999997 L 507.9860000000001 179.60899999999998 C 502.7790000000001 179.64199999999997 499.2760000000001 179.70499999999998 495.0000000000001 182.99999999999997 Z" stroke-linecap="round" />
</g>
		<g transform="matrix(1 0 0 1 278.17 -283.57)"  >
<path style="stroke: none; stroke-width: 1; stroke-dasharray: none; stroke-linecap: butt; stroke-dashoffset: 0; stroke-linejoin: miter; stroke-miterlimit: 4; fill: rgb(74,72,181); fill-rule: nonzero; opacity: 1;" vector-effect="non-scaling-stroke"  transform=" translate(-800.53, -228)" d="M 816 115 L 817 115 C 817.081 116.937 817.14 118.875 817.188 120.813 L 817.293 124.08200000000001 C 816.96 127.4 816.405 127.89200000000001 814 130 L 813.5 133.5 C 812.97 137.205 812.644 137.687 810 140 C 809.6469929706556 141.3283376583055 809.3136232838987 142.6618164053331 809 144.00000000000003 L 807 145 C 806.16 146.91 806.16 146.91 805.5 149.188 L 804.727 151.66 L 804 154 L 802.875 157.125 C 801.891 160.087 801.891 160.087 801.5 163.625 C 801 167 801 167 800.04 168.883 C 798.8399999999999 171.328 798.3679999999999 173.57600000000002 797.875 176.25 L 797.367 178.953 L 797 181 L 794 182 L 794.124 185.083 C 793.998 189.05 793.226 191.91 792.02 195.672 C 788.6 207.884 789.54 220.692 789.688 233.25 C 789.699 235.773 789.708 238.297 789.717 240.82 C 789.73 243.26 789.745 245.7 789.762 248.14 L 789.784 251.51299999999998 C 789.411 264.67999999999995 789.411 264.67999999999995 793 277 C 793.488 279.219 793.918 281.45 794.313 283.688 C 795.429 289.688 796.895 295.522 798.625 301.375 L 799.286 303.628 C 800.1239999999999 307.092 800.1239999999999 307.092 802 310 C 802.574 312.833 803.03 315.68 803.5 318.531 C 803.75 320.934 803.75 320.934 805 322 C 805.072 323.52 805.084 325.042 805.063 326.563 L 805.035 329.066 L 805 331 L 808 331 L 808 341 L 804 341 L 804 336 L 801 335 L 801 333 L 804 333 L 803 323 L 800 323 L 800 311 L 796 311 L 795 297 L 792 297 L 791 279 L 789 281 C 787.762 277.287 787.659 273.707 787.465 269.832 L 787.335 267.424 C 787.1980000000001 264.887 787.068 262.34999999999997 786.937 259.813 C 786.847 258.092 786.754 256.371 786.662 254.64999999999998 C 786.437 250.43399999999997 786.217 246.21699999999998 786 241.99999999999997 L 785 246.99999999999997 L 784 246.99999999999997 C 783.942 243.87499999999997 783.906 240.74999999999997 783.875 237.62499999999997 L 783.825 234.92999999999998 L 783.8050000000001 232.35199999999998 L 783.773 229.97199999999998 C 784 228 784 228 786 226 C 787.536 218.681 787.304 211.078 787.43 203.629 L 787.5229999999999 200.492 L 787.5829999999999 197.66 C 788.0729999999999 194.533 789.3089999999999 192.646 790.9999999999999 190 C 791.4609999999999 187.05 791.4609999999999 187.05 791.4999999999999 184 C 791.6429999999999 179.328 792.5459999999999 176.936 794.9999999999999 173 C 795.4549999999999 170.74 795.4549999999999 170.74 795.4999999999999 168.5 C 795.8199999999999 164.544 796.7999999999998 162.344 798.9999999999999 159 C 799.6719999999999 156.668 800.3399999999999 154.335 800.9999999999999 152 L 802.9999999999999 150 L 803.4379999999999 146.625 C 804.0209999999998 142.865 804.7039999999998 141.847 806.9999999999999 139 L 808.0629999999999 135.812 L 809 133 L 811 132 C 812.0351417268674 129.6818845321319 813.0352555073144 127.34828571108892 814 125.00000000000004 L 815 124 C 815.232 122.485 815.412 120.962 815.563 119.437 L 815.816 116.934 L 816 115 Z" stroke-linecap="round" />
</g>
		<g transform="matrix(1 0 0 1 289.64 276.99)"  >
<path style="stroke: none; stroke-width: 1; stroke-dasharray: none; stroke-linecap: butt; stroke-dashoffset: 0; stroke-linejoin: miter; stroke-miterlimit: 4; fill: rgb(74,72,181); fill-rule: nonzero; opacity: 1;" vector-effect="non-scaling-stroke"  transform=" translate(-812, -788.56)" d="M 788.063 771.734 L 790.449 771.729 C 792.1139999999999 771.7270000000001 793.779 771.731 795.442 771.739 C 797.99 771.75 800.538 771.739 803.086 771.7270000000001 C 804.703 771.7270000000001 806.32 771.7300000000001 807.937 771.734 L 810.248 771.7220000000001 C 814.0350000000001 771.7560000000001 815.7710000000001 771.8480000000001 819 774.0000000000001 C 821.238 774.3340000000001 821.238 774.3340000000001 823.71 774.3440000000002 L 826.484 774.4340000000002 L 829.375 774.5000000000002 C 840.762 774.7640000000002 840.762 774.7640000000002 845 777.0000000000002 L 845 779.0000000000002 L 847.957 778.9300000000002 L 851.813 778.8750000000002 L 855.645 778.8050000000002 C 859 779 859 779 862 781 L 862 783 L 865.75 782.937 C 868.664 782.932 871.21 783.07 874 784 L 874 787 L 883 787 L 884 791 L 894 792 L 894 795 L 902 796 L 902 799 L 907 799 L 909 803 L 921 803 L 921 805 C 918.939 805.109 916.876 805.186 914.812 805.25 L 911.332 805.39 C 907.354 804.924 905.878 803.701 903 801 C 899.516 798.646 896.037 797.223 892.11 795.82 C 889.964 794.9860000000001 887.976 794.004 885.937 792.937 C 882.393 791.1030000000001 878.842 790.087 875 789 L 872.652 787.473 C 869.628 785.793 867.682 785.6089999999999 864.25 785.5 C 859.5 785.215 855.618 784.424 851.18 782.766 C 847.54 781.487 843.7769999999999 780.759 840 780 L 840 778 L 837.31 777.832 C 834.007156817612 777.624109793274 830.7044889839295 777.4134430521693 827.4019999999992 777.2000000000022 C 825.9749999999999 777.109 824.5469999999999 777.019 823.1189999999999 776.9300000000001 C 821.0634860785229 776.801167652257 819.0081507910029 776.6695008604029 816.9529999999996 776.5349999999996 L 813.2079999999999 776.297 C 810.6499999999999 776.0600000000001 808.4629999999999 775.65 805.9999999999999 775 C 803.1474086873096 774.8740009207012 800.292372567848 774.8113188244197 797.4369999999998 774.812 L 794.9099999999999 774.812 C 786.5709999999998 774.8870000000001 778.3839999999999 775.769 770.1139999999998 776.765 C 766.1699999999998 777.203 762.2099999999998 777.431 758.2499999999998 777.656 C 755.7219999999998 777.88 755.7219999999998 777.88 752.9999999999998 780 C 749.7519999999997 780.578 746.5029999999998 780.952 743.2269999999997 781.34 C 739.8549999999998 782.0300000000001 737.8669999999997 783.153 734.9999999999998 785 C 733.4345480256702 785.5925908722103 731.8503912269149 786.1345392507319 730.2499999999998 786.625 C 727.3669999999997 787.373 727.3669999999997 787.373 724.9999999999998 789 C 722.4279999999998 789.572 719.8419999999998 790.029 717.2499999999998 790.5 C 715.0419999999998 790.78 715.0419999999998 790.78 713.9999999999998 792 C 712.3132379929219 792.0677149450611 710.6249246754564 792.0887229914763 708.9369999999998 792.063 L 706.1519999999998 792.035 L 704 792 L 703 788 L 708 787 L 708 784 L 711 784 L 711 787 C 712.584 786.912 714.168 786.804 715.75 786.687 L 718.422 786.5120000000001 C 721.352 785.9300000000001 722.684 784.8230000000001 725 783.0000000000001 L 732 782.0000000000001 L 733.785 780.5000000000001 C 736.8489999999999 778.4250000000001 739.269 778.5940000000002 742.938 778.5000000000001 C 747.885 778.4880000000002 747.885 778.4880000000002 752.246 776.5040000000001 C 756.634 774.1080000000002 761.203 774.5040000000001 766.125 774.4370000000001 C 768.107 774.4030000000001 770.089 774.3600000000001 772.07 774.3090000000001 L 774.72 774.2710000000001 C 779.4200000000001 773.7120000000001 782.892 771.7070000000001 788.062 771.734 Z" stroke-linecap="round" />
</g>
		<g transform="matrix(1 0 0 1 -275.84 283.93)"  >
<path style="stroke: none; stroke-width: 1; stroke-dasharray: none; stroke-linecap: butt; stroke-dashoffset: 0; stroke-linejoin: miter; stroke-miterlimit: 4; fill: rgb(74,72,181); fill-rule: nonzero; opacity: 1;" vector-effect="non-scaling-stroke"  transform=" translate(-246.53, -795.5)" d="M 241 683 L 245 684 C 245.78955565937457 689.227182178466 246.03820296914674 694.5218283973338 245.74200000000002 699.8 C 245.774 702.088 245.774 702.088 247.49599999999998 703.438 C 249 705 249 705 249.293 707.698 L 249.187 710.687 L 249.10500000000002 713.698 L 249 716 L 253 716 L 255 730 L 257 730 L 258 749 L 260 749 C 261.115 752.345 261.134 754.87 261.145 758.396 L 261.155 760.348 C 261.16499999999996 762.478 261.167 764.608 261.16799999999995 766.7379999999999 L 261.17799999999994 771.188 C 261.1839999999999 774.3 261.1859999999999 777.411 261.18499999999995 780.5219999999999 C 261.18499999999995 784.4999999999999 261.19899999999996 788.478 261.21599999999995 792.4559999999999 C 261.227 795.521 261.2289999999999 798.5859999999999 261.2289999999999 801.651 C 261.2289999999999 803.117 261.2339999999999 804.583 261.2419999999999 806.049 C 261.2519999999999 808.105 261.2489999999999 810.16 261.2419999999999 812.216 L 261.2469999999999 815.756 C 260.9809999999999 819.247 260.5979999999999 823.4019999999999 257.9999999999999 826 C 257.7964554895292 829.3338079334657 257.65309881010506 832.6710180754097 257.5699999999999 836.01 C 257.3769999999999 840.412 256.77999999999986 842.646 253.9999999999999 846 C 253.53899999999987 848.447 253.53899999999987 848.447 253.4999999999999 851 C 253.34899999999988 855.132 252.4789999999999 856.758 249.9999999999999 860 C 249.2929999999999 862.507 249.2929999999999 862.507 248.9369999999999 865.125 C 248.2109999999999 869.789 248.2109999999999 869.789 245.9999999999999 872 L 244.9999999999999 875 C 243.9999999999999 878 243.9999999999999 878 241.9999999999999 880 C 241.2385087289624 881.934502019082 240.50178185267742 883.8786609070884 239.78999999999985 885.8320000000001 C 236.71099999999987 894.289 236.71099999999987 894.289 233.9999999999999 897 C 233.5369999999999 899.662 233.5369999999999 899.662 233.3749999999999 902.625 L 233.14799999999988 905.665 L 233 908 L 232 908 C 231.94751695938618 906.041911745319 231.90584965713336 904.0835485394358 231.875 902.125 L 231.805 898.82 C 232 896 232 896 234 894 C 234.5467301145397 892.7056125093457 235.04704910990765 891.3921083735064 235.5 890.062 C 236.454 887.288 237.332 885.5020000000001 239 883 C 239.942 880.363 240.78 877.702 241.617 875.031 C 243.929 867.861 246.62699999999998 860.7439999999999 250 854 C 250.279 850.756 250.447 847.513 250.621 844.262 C 250.991 841.083 251.805 838.938 253 836 C 253.612 833.248 254.054 830.471 254.5 827.687 C 254.737 826.2330000000001 254.976 824.778 255.219 823.324 L 255.529 821.389 C 256 819 256 819 257.028 815.55 C 258.495 809.731 258.32500000000005 803.851 258.336 797.8839999999999 L 258.356 794.0889999999999 C 258.366 791.448 258.372 788.8069999999999 258.371 786.1669999999999 C 258.371 783.4769999999999 258.38399999999996 780.7869999999999 258.411 778.0969999999999 C 258.448 774.1919999999999 258.458 770.2879999999999 258.461 766.3839999999999 L 258.504 762.7719999999999 C 258.469 756.1719999999999 257.728 751.0409999999999 254.92900000000003 745.0319999999999 C 253.73200000000003 742.415 253.29300000000003 739.9089999999999 252.93700000000004 737.064 C 252.23300000000003 732.2479999999999 251.20300000000003 727.694 249.85500000000005 723.021 C 249.19500000000005 720.6899999999999 248.57800000000006 718.361 247.98800000000006 716.0129999999999 L 247.46000000000006 713.9379999999999 C 247.11600787809388 712.5811647338753 246.7780045875042 711.2228181765253 246.44600000000005 709.8629999999997 C 246.02500000000006 708.2259999999999 245.51900000000006 706.6099999999998 245.00000000000006 705.0009999999999 L 243.00000000000006 704.0009999999999 C 242.40200000000004 702.1879999999999 242.40200000000004 702.1879999999999 241.93700000000007 700.0009999999999 C 241.48300000000006 697.2299999999999 241.48300000000006 697.2299999999999 240.00000000000006 695.0009999999999 C 239.90669390269258 693.3567126323519 239.86500672277495 691.7099022768857 239.87500000000006 690.0629999999999 L 239.86700000000005 687.3489999999998 C 240 685 240 685 241 683 Z" stroke-linecap="round" />
</g>
		<g transform="matrix(1 0 0 1 -260.36 -270.72)"  >
<path style="stroke: none; stroke-width: 1; stroke-dasharray: none; stroke-linecap: butt; stroke-dashoffset: 0; stroke-linejoin: miter; stroke-miterlimit: 4; fill: rgb(74,72,181); fill-rule: nonzero; opacity: 1;" vector-effect="non-scaling-stroke"  transform=" translate(-262, -240.85)" d="M 335.723 231.902 L 339.063 231.938 L 342.40999999999997 231.96499999999997 L 345 232 L 345 236 L 343.062 236.313 L 341 237 L 340 240 L 338 240 L 338 237 C 336.397 236.919 334.792 236.86 333.187 236.812 L 330.48 236.70700000000002 C 327.94800000000004 236.747 327.94800000000004 236.747 326.52000000000004 238.48000000000002 C 323.84200000000004 241.15800000000002 320.20500000000004 240.47700000000003 316.59400000000005 240.59400000000002 C 313.96400000000006 240.73600000000002 313.96400000000006 240.73600000000002 312.58400000000006 242.484 C 309.85400000000004 245.096 306.05100000000004 244.77800000000002 302.43700000000007 245.062 C 296.70200000000006 245.216 296.70200000000006 245.216 292.00000000000006 248 C 289.4560000000001 248.234 287.01300000000003 248.35 284.46500000000003 248.379 L 282.184 248.42999999999998 C 279.769 248.48399999999998 277.35400000000004 248.52399999999997 274.937 248.56199999999998 C 271.78000000000003 248.62099999999998 268.622 248.68499999999997 265.46500000000003 248.754 L 263.168 248.79999999999998 C 259.37 248.89 255.644 249.08399999999997 251.87800000000001 249.58999999999997 C 248.501 249.94699999999997 245.77 249.80799999999996 242.43800000000002 249.29299999999998 C 236.502 248.57899999999998 230.47400000000002 248.60899999999998 224.50000000000003 248.43699999999998 L 220.27300000000002 248.307 C 216.84900000000002 248.201 213.425 248.099 210.00000000000003 248 L 210.00000000000003 245 L 206.06200000000004 245.063 C 201.30600000000004 245.07 196.71600000000004 244.599 192.00000000000003 244 L 192.00000000000003 242 L 189.00000000000003 242 L 189.00000000000003 240 L 179.00000000000003 240 C 181.00000000000003 238 181.00000000000003 238 183.68000000000004 237.734 L 186.87500000000003 237.75 L 190.05500000000004 237.734 C 192.97500000000002 237.99800000000002 194.48100000000002 238.607 197.00000000000003 240 C 199.32500000000002 240.387 201.65900000000002 240.73 204.00000000000003 241 L 204.00000000000003 243 L 207.12800000000004 242.907 C 210.74200000000005 242.994 213.48400000000004 243.52900000000002 216.94500000000005 244.48000000000002 C 226.46400000000006 246.62 235.97000000000006 246.413 245.68500000000006 246.336 C 248.86200000000005 246.31300000000002 252.03800000000007 246.316 255.21500000000006 246.322 C 273.84600000000006 246.579 273.84600000000006 246.579 292.00000000000006 243 C 294.6460000000001 242.638 297.2850000000001 242.304 299.93800000000005 242 C 306.03100000000006 241.342 306.03100000000006 241.342 312.00000000000006 240 L 312.00000000000006 238 L 313.82000000000005 237.557 C 316.52700000000004 236.896 319.232 236.22899999999998 321.93800000000005 235.563 L 324.80300000000005 234.86499999999998 L 327.52700000000004 234.19099999999997 L 330.05100000000004 233.57299999999998 C 332.79400000000004 232.76699999999997 332.61400000000003 232.01299999999998 335.72300000000007 231.903 Z" stroke-linecap="round" />
</g>
		<g transform="matrix(1 0 0 1 271.64 265.93)"  >
<path style="stroke: none; stroke-width: 1; stroke-dasharray: none; stroke-linecap: butt; stroke-dashoffset: 0; stroke-linejoin: miter; stroke-miterlimit: 4; fill: rgb(74,72,181); fill-rule: nonzero; opacity: 1;" vector-effect="non-scaling-stroke"  transform=" translate(-794, -777.5)" d="M 791.602 773.867 L 794.086 773.8629999999999 L 796.625 773.8749999999999 L 799.188 773.8629999999999 L 801.664 773.867 L 803.8969999999999 773.871 C 805.9999999999999 774 805.9999999999999 774 807.8679999999999 774.4789999999999 C 810.7249999999999 775.1769999999999 813.51 775.295 816.4449999999999 775.4649999999999 L 820.2069999999999 775.7009999999999 C 822.8269999999999 775.8589999999999 825.4469999999999 776.0129999999999 828.0669999999999 776.1619999999999 L 831.8199999999999 776.4019999999999 L 835.266 776.6049999999999 C 838 777 838 777 840 779 L 836.629 778.781 C 823.523 778.021 810.437 777.8879999999999 797.312 777.875 L 794.705 777.867 C 785.248 777.8449999999999 775.8050000000001 777.9639999999999 766.355 778.3829999999999 L 763.898 778.4749999999999 C 759.481 778.5489999999999 759.481 778.5489999999999 756 780.9999999999999 C 753.312 781.2699999999999 750.709 781.0869999999999 748 780.9999999999999 L 748 779.9999999999999 L 750.875 779.0619999999999 C 753.861 778.1259999999999 753.861 778.1259999999999 756 776.9999999999999 C 757.813 776.7899999999998 759.633 776.6319999999998 761.453 776.4999999999999 L 764.77 776.2499999999999 L 768.25 775.9999999999999 C 770.505 775.8359999999999 772.76 775.6699999999998 775.016 775.4999999999999 L 778.0559999999999 775.2809999999998 C 781.0329999999999 775.0329999999998 781.0329999999999 775.0329999999998 784.0859999999999 774.4769999999999 C 786.6539999999999 774.0569999999999 789.0059999999999 773.8709999999999 791.6019999999999 773.8669999999998 Z" stroke-linecap="round" />
</g>
		<g transform="matrix(1 0 0 1 -199.86 -273.12)"  >
<path style="stroke: none; stroke-width: 1; stroke-dasharray: none; stroke-linecap: butt; stroke-dashoffset: 0; stroke-linejoin: miter; stroke-miterlimit: 4; fill: rgb(74,72,181); fill-rule: nonzero; opacity: 1;" vector-effect="non-scaling-stroke"  transform=" translate(-322.5, -238.45)" d="M 335.723 231.902 L 339.063 231.938 L 342.40999999999997 231.96499999999997 L 345 232 L 345 236 L 343.062 236.313 L 341 237 L 340 240 L 338 240 L 338 237 C 336.397 236.919 334.792 236.86 333.187 236.812 L 330.48 236.70700000000002 C 327.94800000000004 236.747 327.94800000000004 236.747 326.52000000000004 238.48000000000002 C 323.84200000000004 241.15800000000002 320.20500000000004 240.47700000000003 316.59400000000005 240.59400000000002 C 313.9630000000001 240.74400000000003 313.9630000000001 240.74400000000003 312.51200000000006 242.48800000000003 C 310.30000000000007 244.70000000000002 308.37600000000003 244.50800000000004 305.31200000000007 244.68800000000002 L 302.30100000000004 244.88700000000003 L 300 245 L 300 243 L 312 240 L 312 238 L 313.82 237.557 C 316.527 236.896 319.23199999999997 236.22899999999998 321.938 235.563 L 324.803 234.86499999999998 L 327.527 234.19099999999997 L 330.051 233.57299999999998 C 332.794 232.76699999999997 332.614 232.01299999999998 335.723 231.903 Z" stroke-linecap="round" />
</g>
		<g transform="matrix(1 0 0 1 -368.36 -284.12)"  >
<path style="stroke: none; stroke-width: 1; stroke-dasharray: none; stroke-linecap: butt; stroke-dashoffset: 0; stroke-linejoin: miter; stroke-miterlimit: 4; fill: rgb(74,72,181); fill-rule: nonzero; opacity: 1;" vector-effect="non-scaling-stroke"  transform=" translate(-154, -227.45)" d="M 128 217 C 134.166 216.622 138.364 217.182 144 220 C 147.74 221.632 151.459 223.164 155.313 224.5 C 159 226 159 226 161 229 C 163.324 229.682 165.611 230.008 168.004 230.375 L 170 231 L 171 234 L 173.25 234.313 C 176.191 235.048 177.661 236.136 180 238 C 178.06 237.744 176.123 237.47 174.187 237.187 L 170.918 236.73000000000002 C 167.826 235.95600000000002 167.071 235.26600000000002 165 233.00000000000003 L 161.5 232.50000000000003 C 157.706 231.95800000000003 157.415 231.62500000000003 155 229.00000000000003 C 151.9 227.80000000000004 151.9 227.80000000000004 149 227.00000000000003 L 149 225.00000000000003 L 145.625 224.68700000000004 L 142 224 L 140 221 C 137.114 220.415 137.114 220.415 133.875 220.312 L 130.555 220.113 L 128 220 L 128 217 Z" stroke-linecap="round" />
</g>
		<g transform="matrix(1 0 0 1 -277.85 359.43)"  >
<path style="stroke: none; stroke-width: 1; stroke-dasharray: none; stroke-linecap: butt; stroke-dashoffset: 0; stroke-linejoin: miter; stroke-miterlimit: 4; fill: rgb(74,72,181); fill-rule: nonzero; opacity: 1;" vector-effect="non-scaling-stroke"  transform=" translate(-244.51, -871)" d="M 256 834 L 257 834 C 257.293 839.957 257.293 839.957 257 842 L 254 845 L 256 834 Z M 252 845 L 254 846 C 253.9101398340022 847.5842538306562 253.80580214309475 849.1676532933083 253.68699999999995 850.75 L 253.512 853.422 C 252.927 856.368 251.802 857.644 250 860 C 249.293 862.507 249.293 862.507 248.937 865.125 C 248.211 869.789 248.211 869.789 246 872 L 245 875 C 244 878 244 878 242 880 C 241.2385087289625 881.934502019082 240.50178185267754 883.8786609070884 239.78999999999996 885.8320000000001 C 236.71099999999998 894.289 236.71099999999998 894.289 234 897 C 233.537 899.662 233.537 899.662 233.375 902.625 L 233.148 905.665 L 233 908 L 232 908 C 231.94751695938618 906.041911745319 231.90584965713336 904.0835485394358 231.875 902.125 L 231.805 898.82 C 232 896 232 896 234 894 C 234.5467301145397 892.7056125093457 235.04704910990765 891.3921083735064 235.5 890.062 C 236.454 887.288 237.332 885.5020000000001 239 883 C 239.942 880.363 240.78 877.702 241.617 875.031 C 243.039 870.621 244.664 866.381 246.5 862.125 C 248.88 856.53 250.57 850.904 252 845 Z" stroke-linecap="round" />
</g>
		<g transform="matrix(1 0 0 1 269.4 -283.57)"  >
<path style="stroke: none; stroke-width: 1; stroke-dasharray: none; stroke-linecap: butt; stroke-dashoffset: 0; stroke-linejoin: miter; stroke-miterlimit: 4; fill: rgb(74,72,181); fill-rule: nonzero; opacity: 1;" vector-effect="non-scaling-stroke"  transform=" translate(-791.76, -228)" d="M 794 182 L 795 182 C 794.884231998384 184.68808809093764 794.7592312610132 187.37577061206048 794.625 190.063 C 794.595 190.815 794.563 191.56699999999998 794.531 192.34199999999998 C 794.279 197.19 793.3439999999999 201.31599999999997 792 205.99999999999997 C 791.037 212.68699999999998 790.851 219.36399999999998 790.867 226.10999999999996 L 790.8639999999999 228.92499999999995 C 790.8639999999999 230.87799999999996 790.8649999999999 232.83099999999996 790.8699999999999 234.78499999999997 C 790.8749999999999 237.72899999999996 790.8699999999999 240.67299999999997 790.8629999999999 243.61699999999996 C 790.8599999999999 253.79299999999995 791.0469999999999 263.861 791.9999999999999 273.99999999999994 L 789.9999999999999 272.99999999999994 C 788.5519999999999 264.89599999999996 788.8159999999999 256.35099999999994 788.7619999999998 248.13999999999993 L 788.7369999999999 244.53999999999994 C 788.7239999999998 242.04299999999995 788.7129999999999 239.54499999999993 788.7049999999998 237.04799999999994 C 788.6929999999999 234.52299999999994 788.6729999999998 231.99799999999993 788.6429999999998 229.47399999999993 C 788.3469999999998 204.07499999999993 788.3469999999998 204.07499999999993 792.0379999999998 192.18999999999994 C 793.0599999999998 188.79999999999995 793.5759999999998 185.50999999999993 793.9999999999998 181.99999999999994 Z" stroke-linecap="round" />
</g>
		<g transform="matrix(1 0 0 1 -265.27 272.43)"  >
<path style="stroke: none; stroke-width: 1; stroke-dasharray: none; stroke-linecap: butt; stroke-dashoffset: 0; stroke-linejoin: miter; stroke-miterlimit: 4; fill: rgb(74,72,181); fill-rule: nonzero; opacity: 1;" vector-effect="non-scaling-stroke"  transform=" translate(-257.1, -784)" d="M 255 744 C 258.181 748.772 259.248 753.104 259.275 758.8 L 259.304 762.1899999999999 L 259.301 765.8159999999999 L 259.31399999999996 769.598 C 259.31999999999994 772.2379999999999 259.32099999999997 774.8779999999999 259.316 777.5179999999999 C 259.311 780.2019999999999 259.318 782.8849999999999 259.33599999999996 785.5679999999999 C 259.36099999999993 789.4639999999998 259.36499999999995 793.3579999999998 259.36299999999994 797.2539999999999 L 259.39099999999996 800.8379999999999 C 259.347 808.9129999999999 258.123 816.2139999999998 255.99999999999997 823.9999999999999 L 254.99999999999997 823.9999999999999 C 254.94691276584817 822.6043642531178 254.90524470468856 821.2083175320261 254.87499999999997 819.8119999999999 L 254.80499999999998 817.4569999999999 C 254.99999999999997 814.9999999999999 254.99999999999997 814.9999999999999 255.99499999999998 813.0109999999999 C 257.503 808.4909999999999 257.28499999999997 804.0979999999998 257.265 799.3629999999998 C 257.268 798.3289999999998 257.269 797.2939999999999 257.27099999999996 796.2279999999998 C 257.27299999999997 794.0399999999998 257.26899999999995 791.8519999999999 257.26099999999997 789.6639999999999 C 257.251 786.3419999999999 257.26099999999997 783.0199999999999 257.27299999999997 779.6969999999999 C 257.27196768483935 777.5649987746026 257.2696343510711 775.4329983776374 257.26599999999945 773.3009999999969 L 257.27799999999996 770.323 C 257.241 764.765 256.715 759.6569999999999 255.43999999999997 754.242 C 254.76199999999997 750.788 254.86999999999998 747.509 254.99999999999997 744 Z" stroke-linecap="round" />
</g>
		<g transform="matrix(1 0 0 1 -281.74 367.43)"  >
<path style="stroke: none; stroke-width: 1; stroke-dasharray: none; stroke-linecap: butt; stroke-dashoffset: 0; stroke-linejoin: miter; stroke-miterlimit: 4; fill: rgb(74,72,181); fill-rule: nonzero; opacity: 1;" vector-effect="non-scaling-stroke"  transform=" translate(-240.62, -879)" d="M 250 850 C 250.845 852.4 251.11 853.654 250.328 856.113 L 249.25 858.3130000000001 L 248.117 860.6990000000001 L 247 863 C 245.451 866.455 244.076 869.726 243.062 873.375 C 241.76600000000002 877.798 239.92200000000003 881.821 238 886 C 236.94126356041284 888.415470014161 235.88526288327049 890.8321382304747 234.83199999999897 893.2500000000023 C 234 895 234 895 233 896 C 232.76976917093756 898.0168212992816 232.58206084250412 900.0382699587701 232.437 902.063 L 232.18400000000003 905.41 L 232 908 L 231 908 C 229.933 893.002 229.933 893.002 235.54 886.066 C 237.59799999999998 883.154 238.063 880.328 238.578 876.8480000000001 C 239 875 239 875 241 873 C 241.68 870.959 242.356 868.915 243.004 866.863 C 245.004 861.113 247.551 855.571 250 850 Z" stroke-linecap="round" />
</g>
		<g transform="matrix(1 0 0 1 329.64 269.45)"  >
<path style="stroke: none; stroke-width: 1; stroke-dasharray: none; stroke-linecap: butt; stroke-dashoffset: 0; stroke-linejoin: miter; stroke-miterlimit: 4; fill: rgb(74,72,181); fill-rule: nonzero; opacity: 1;" vector-effect="non-scaling-stroke"  transform=" translate(-852, -781.02)" d="M 838 777 C 839.6664060851825 776.9583201500202 841.3335939148175 776.9583201500202 843 777 L 844 778 C 847.123 778.17 850.238 778.297 853.365 778.342 C 856.777 778.485 858.6370000000001 778.696 861.293 780.918 L 863 783 L 866 785 C 860.49 785.3 856.484 784.699 851.32 782.8 C 847.625 781.526 843.827 780.77 840 780 L 840 778 L 838 777 Z" stroke-linecap="round" />
</g>
		<g transform="matrix(1 0 0 1 281.64 -184.57)"  >
<path style="stroke: none; stroke-width: 1; stroke-dasharray: none; stroke-linecap: butt; stroke-dashoffset: 0; stroke-linejoin: miter; stroke-miterlimit: 4; fill: rgb(74,72,181); fill-rule: nonzero; opacity: 1;" vector-effect="non-scaling-stroke"  transform=" translate(-804, -327)" d="M 800 313 L 801 313 L 801 318 L 803 318 C 804.784 321.062 805.229 323.22 805.125 326.75 L 805.07 329.172 L 805 331 L 808 331 L 808 341 L 804 341 L 804 336 L 801 335 L 801 333 L 804 333 L 803 323 L 800 323 L 800 313 Z" stroke-linecap="round" />
</g>
		<g transform="matrix(1 0 0 1 -183.86 -281.07)"  >
<path style="stroke: none; stroke-width: 1; stroke-dasharray: none; stroke-linecap: butt; stroke-dashoffset: 0; stroke-linejoin: miter; stroke-miterlimit: 4; fill: rgb(74,72,181); fill-rule: nonzero; opacity: 1;" vector-effect="non-scaling-stroke"  transform=" translate(-338.5, -230.5)" d="M 342 227 C 345.625 227.375 345.625 227.375 349 228 L 349 233 L 345.676 232.965 L 341.313 232.937 L 339.127 232.912 C 335.284 232.895 331.73400000000004 233.065 328 234 C 328.938 232.062 328.938 232.062 331 230 C 333.33 229.543 335.57 229.375 337.941 229.273 C 340.22299999999996 229.183 340.22299999999996 229.183 342 227 Z" stroke-linecap="round" />
</g>
		<g transform="matrix(1 0 0 1 272.07 -326.57)"  >
<path style="stroke: none; stroke-width: 1; stroke-dasharray: none; stroke-linecap: butt; stroke-dashoffset: 0; stroke-linejoin: miter; stroke-miterlimit: 4; fill: rgb(74,72,181); fill-rule: nonzero; opacity: 1;" vector-effect="non-scaling-stroke"  transform=" translate(-794.43, -185)" d="M 800 165 C 800 168.387 799.403 171.315 798.687 174.625 L 797.949 178.165 L 797 181 L 794 182 L 794.125 184.973 C 794.125 189.328 793.133 193.25500000000002 792 197.437 L 791.422 199.65400000000002 C 790.954219985186 201.43764866521207 790.4802170990944 203.21965951545513 789.9999999999999 204.99999999999997 L 789 205 C 788.75 197.49 788.75 197.49 789.95 195.145 C 791.801 191.365 791.856 187.139 792.34 182.996 C 793.0540000000001 179.75300000000001 793.692 179.17600000000002 796 177 C 796.716 174.57 796.716 174.57 797.063 171.937 C 797.792 167.208 797.792 167.208 800 165 Z" stroke-linecap="round" />
</g>
		<g transform="matrix(1 0 0 1 -185.86 -275.63)"  >
<path style="stroke: none; stroke-width: 1; stroke-dasharray: none; stroke-linecap: butt; stroke-dashoffset: 0; stroke-linejoin: miter; stroke-miterlimit: 4; fill: rgb(74,72,181); fill-rule: nonzero; opacity: 1;" vector-effect="non-scaling-stroke"  transform=" translate(-336.5, -235.94)" d="M 341.625 231.875 L 345 232 L 345 236 L 343.062 236.313 L 341 237 L 340 240 L 338 240 L 338 237 L 334.125 237.125 C 331.945 237.195 331.945 237.195 330 237 L 328 235 L 331.875 234.625 C 336.04 234.222 337.431 232.02 341.625 231.875 Z" stroke-linecap="round" />
</g>
		<g transform="matrix(1 0 0 1 189.14 275.93)"  >
<path style="stroke: none; stroke-width: 1; stroke-dasharray: none; stroke-linecap: butt; stroke-dashoffset: 0; stroke-linejoin: miter; stroke-miterlimit: 4; fill: rgb(74,72,181); fill-rule: nonzero; opacity: 1;" vector-effect="non-scaling-stroke"  transform=" translate(-711.5, -787.5)" d="M 708 784 L 711 784 L 711 787 L 720 787 L 720 788 L 716.562 788.375 L 713 789 L 712 791 L 703 791 L 704 787 L 708 787 L 708 784 Z" stroke-linecap="round" />
</g>
		<g transform="matrix(1 0 0 1 492.68 30.93)"  >
<path style="stroke: none; stroke-width: 1; stroke-dasharray: none; stroke-linecap: butt; stroke-dashoffset: 0; stroke-linejoin: miter; stroke-miterlimit: 4; fill: rgb(74,72,181); fill-rule: nonzero; opacity: 1;" vector-effect="non-scaling-stroke"  transform=" translate(-1015.05, -542.5)" d="M 1013 536 L 1017 536 C 1017.027 537.604 1017.046 539.208 1017.063 540.813 L 1017.098 543.52 C 1017 546 1017 546 1016 549 L 1013 549 L 1013 536 Z" stroke-linecap="round" />
</g>
		<g transform="matrix(1 0 0 1 -197.36 -276.02)"  >
<path style="stroke: none; stroke-width: 1; stroke-dasharray: none; stroke-linecap: butt; stroke-dashoffset: 0; stroke-linejoin: miter; stroke-miterlimit: 4; fill: rgb(74,72,181); fill-rule: nonzero; opacity: 1;" vector-effect="non-scaling-stroke"  transform=" translate(-325, -235.55)" d="M 335.563 231.938 L 338 232 C 336 235 336 235 333.687 235.66 L 331 236.063 C 327.046 236.57299999999998 327.046 236.57299999999998 324 239 C 321.18 239.195 321.18 239.195 317.875 239.125 L 314.555 239.07 L 312 239 L 312 238 L 313.82 237.557 C 316.527 236.896 319.23199999999997 236.22899999999998 321.938 235.563 L 324.803 234.86499999999998 L 327.527 234.19099999999997 L 330.051 233.57299999999998 C 332.707 232.79299999999998 332.599 232.01 335.563 231.93699999999998 Z" stroke-linecap="round" />
</g>
		<g transform="matrix(1 0 0 1 263.11 -275.07)"  >
<path style="stroke: none; stroke-width: 1; stroke-dasharray: none; stroke-linecap: butt; stroke-dashoffset: 0; stroke-linejoin: miter; stroke-miterlimit: 4; fill: rgb(74,72,181); fill-rule: nonzero; opacity: 1;" vector-effect="non-scaling-stroke"  transform=" translate(-785.48, -236.5)" d="M 786 226 L 787 226 C 787.369 240.781 787.369 240.781 785 247 L 784 247 C 783.942 243.875 783.906 240.75 783.875 237.625 L 783.825 234.93 L 783.8050000000001 232.352 L 783.773 229.972 C 784 228 784 228 786 226 Z" stroke-linecap="round" />
</g>
		<g transform="matrix(1 0 0 1 -287.01 381.93)"  >
<path style="stroke: none; stroke-width: 1; stroke-dasharray: none; stroke-linecap: butt; stroke-dashoffset: 0; stroke-linejoin: miter; stroke-miterlimit: 4; fill: rgb(74,72,181); fill-rule: nonzero; opacity: 1;" vector-effect="non-scaling-stroke"  transform=" translate(-235.35, -893.5)" d="M 239 879 C 239.75 880.563 239.75 880.563 240 883 C 239.064 884.776 238.117 886.55 237.055 888.254 C 235.755 890.405 234.895 892.657 234 895 L 233 896 C 232.76976917093756 898.0168212992816 232.58206084250412 900.0382699587701 232.437 902.063 L 232.18400000000003 905.41 L 232 908 L 231 908 C 230.05 896.833 231.154 891.128 238 882 L 239 879 Z" stroke-linecap="round" />
</g>
		<g transform="matrix(1 0 0 1 -265.31 244.93)"  >
<path style="stroke: none; stroke-width: 1; stroke-dasharray: none; stroke-linecap: butt; stroke-dashoffset: 0; stroke-linejoin: miter; stroke-miterlimit: 4; fill: rgb(74,72,181); fill-rule: nonzero; opacity: 1;" vector-effect="non-scaling-stroke"  transform=" translate(-257.06, -756.5)" d="M 255 744 C 258.8 749.7 259.281 754.74 259.125 761.375 L 259.098 763.605 C 259.074 765.404 259.038 767.202 259 769 L 258 769 C 257.491 766.335 256.993 763.668 256.5 761 L 256.066 758.746 C 255.15399999999997 753.7479999999999 254.86099999999996 749.081 254.99999999999997 744 Z" stroke-linecap="round" />
</g>
		<g transform="matrix(1 0 0 1 -234.36 -267.61)"  >
<path style="stroke: none; stroke-width: 1; stroke-dasharray: none; stroke-linecap: butt; stroke-dashoffset: 0; stroke-linejoin: miter; stroke-miterlimit: 4; fill: rgb(74,72,181); fill-rule: nonzero; opacity: 1;" vector-effect="non-scaling-stroke"  transform=" translate(-288, -243.96)" d="M 295.25 241.875 L 297.508 241.902 C 299.33799999999997 241.926 301.169 241.962 303 242 L 303 243 L 300.84 243.148 C 296.57399999999996 243.481 292.66499999999996 243.795 288.563 245.063 C 283.38599999999997 246.42499999999998 278.323 246.15699999999998 273 246 L 273 245 L 275.047 244.852 L 277.75 244.625 C 278.632 244.555 279.513 244.485 280.422 244.415 C 282.96500000000003 244.16 282.96500000000003 244.16 284.812 242.969 C 288.192 241.47199999999998 291.62600000000003 241.792 295.25 241.875 Z" stroke-linecap="round" />
</g>
		<g transform="matrix(1 0 0 1 283.36 -359.57)"  >
<path style="stroke: none; stroke-width: 1; stroke-dasharray: none; stroke-linecap: butt; stroke-dashoffset: 0; stroke-linejoin: miter; stroke-miterlimit: 4; fill: rgb(74,72,181); fill-rule: nonzero; opacity: 1;" vector-effect="non-scaling-stroke"  transform=" translate(-805.73, -152)" d="M 809 140 L 810 140 C 810.338 144.851 809.481 146.927 807 151 C 806.0623881469664 153.25436137946022 805.1662371904264 155.52574399363704 804.312 157.81299999999993 L 802.988 161.332 L 802 164 C 800.81 160.294 801.436 158.539 803.098 155.016 C 804.693 151.452 805.812 147.71599999999998 807 144 L 809 144 L 809 140 Z" stroke-linecap="round" />
</g>
		<g transform="matrix(1 0 0 1 -279.01 180.43)"  >
<path style="stroke: none; stroke-width: 1; stroke-dasharray: none; stroke-linecap: butt; stroke-dashoffset: 0; stroke-linejoin: miter; stroke-miterlimit: 4; fill: rgb(74,72,181); fill-rule: nonzero; opacity: 1;" vector-effect="non-scaling-stroke"  transform=" translate(-243.35, -692)" d="M 242 683 L 245 684 C 245.97 689.93 245.893 695.064 245 701 L 244 701 L 244 691 L 241 691 L 242 683 Z" stroke-linecap="round" />
</g>
		<g transform="matrix(1 0 0 1 -265.79 311.93)"  >
<path style="stroke: none; stroke-width: 1; stroke-dasharray: none; stroke-linecap: butt; stroke-dashoffset: 0; stroke-linejoin: miter; stroke-miterlimit: 4; fill: rgb(74,72,181); fill-rule: nonzero; opacity: 1;" vector-effect="non-scaling-stroke"  transform=" translate(-256.58, -823.5)" d="M 258 811 L 259 811 C 259.055 812.395 259.093 813.791 259.125 815.188 L 259.195 817.543 C 258.971 820.365 258.081 822.393 257 825 C 256.57841984110087 826.9283608263257 256.20331123428457 828.8665886764798 255.875 830.813 L 255.367 833.77 L 255 836 L 254 836 C 253.78 829.975 254.506 824.825 256 819 L 256.578 816.652 C 257.044 814.7660000000001 257.52099999999996 812.8820000000001 258 811 Z" stroke-linecap="round" />
</g>
		<g transform="matrix(1 0 0 1 -235.86 -266.5)"  >
<path style="stroke: none; stroke-width: 1; stroke-dasharray: none; stroke-linecap: butt; stroke-dashoffset: 0; stroke-linejoin: miter; stroke-miterlimit: 4; fill: rgb(74,72,181); fill-rule: nonzero; opacity: 1;" vector-effect="non-scaling-stroke"  transform=" translate(-286.5, -245.07)" d="M 296.188 242.938 L 300 243 L 300 244 L 296.687 244.375 C 292.927 244.755 292.927 244.755 290 247 C 288.099 247.227 288.099 247.227 285.988 247.195 L 283.693 247.17499999999998 L 281.313 247.12499999999997 L 278.896 247.09799999999998 C 276.93100000000004 247.07399999999998 274.966 247.03799999999998 273 246.99999999999997 L 273 245.99999999999997 L 276.395 245.59799999999998 L 280.813 245.06199999999998 L 283.049 244.79899999999998 C 287.539 244.24999999999997 291.67699999999996 242.86399999999998 296.188 242.93699999999998 Z" stroke-linecap="round" />
</g>
		<g transform="matrix(1 0 0 1 -327.86 -271.53)"  >
<path style="stroke: none; stroke-width: 1; stroke-dasharray: none; stroke-linecap: butt; stroke-dashoffset: 0; stroke-linejoin: miter; stroke-miterlimit: 4; fill: rgb(74,72,181); fill-rule: nonzero; opacity: 1;" vector-effect="non-scaling-stroke"  transform=" translate(-194.5, -240.04)" d="M 185 238 C 192.874 237.738 192.874 237.738 197 240 C 199.325 240.387 201.659 240.73 204 241 L 204 242 C 202.23 242.054 200.459 242.093 198.687 242.125 L 195.699 242.195 C 193 242 193 242 190 240 C 188.34509790389586 239.6103279757535 186.67747579034477 239.2768035530433 184.99999999999997 239 L 185 238 Z" stroke-linecap="round" />
</g>
		<g transform="matrix(1 0 0 1 -70.86 486.51)"  >
<path style="stroke: none; stroke-width: 1; stroke-dasharray: none; stroke-linecap: butt; stroke-dashoffset: 0; stroke-linejoin: miter; stroke-miterlimit: 4; fill: rgb(74,72,181); fill-rule: nonzero; opacity: 1;" vector-effect="non-scaling-stroke"  transform=" translate(-451.5, -998.08)" d="M 456 996 L 456 1000 C 450.462 1000.37 450.462 1000.37 448.125 998.5 L 447 997 C 450.196 995.935 452.657 995.926 456 996 Z" stroke-linecap="round" />
</g>
		<g transform="matrix(1 0 0 1 -388.86 -293.07)"  >
<path style="stroke: none; stroke-width: 1; stroke-dasharray: none; stroke-linecap: butt; stroke-dashoffset: 0; stroke-linejoin: miter; stroke-miterlimit: 4; fill: rgb(74,72,181); fill-rule: nonzero; opacity: 1;" vector-effect="non-scaling-stroke"  transform=" translate(-133.5, -218.5)" d="M 128 217 L 137 217 L 137 219 L 139 220 L 128 220 L 128 217 Z" stroke-linecap="round" />
</g>
		<g transform="matrix(1 0 0 1 -344.86 -276.07)"  >
<path style="stroke: none; stroke-width: 1; stroke-dasharray: none; stroke-linecap: butt; stroke-dashoffset: 0; stroke-linejoin: miter; stroke-miterlimit: 4; fill: rgb(74,72,181); fill-rule: nonzero; opacity: 1;" vector-effect="non-scaling-stroke"  transform=" translate(-177.5, -235.5)" d="M 171 233 C 172.605 233.114 174.209 233.242 175.813 233.375 C 176.706 233.445 177.599 233.515 178.51999999999998 233.585 C 181 234 181 234 184 236 L 184 238 C 179.153 237.409 175.393 236.02 171 234 L 171 233 Z" stroke-linecap="round" />
</g>
		<g transform="matrix(1 0 0 1 -374.36 488.43)"  >
<path style="stroke: none; stroke-width: 1; stroke-dasharray: none; stroke-linecap: butt; stroke-dashoffset: 0; stroke-linejoin: miter; stroke-miterlimit: 4; fill: rgb(74,72,181); fill-rule: nonzero; opacity: 1;" vector-effect="non-scaling-stroke"  transform=" translate(-148, -1000)" d="M 148 996 L 152 996 C 150.56 999.362 148.752 1001.592 146 1004 L 144 1004 L 144 1000 L 148 998 L 148 996 Z" stroke-linecap="round" />
</g>
		<g transform="matrix(1 0 0 1 331.54 24.93)"  >
<path style="stroke: none; stroke-width: 1; stroke-dasharray: none; stroke-linecap: butt; stroke-dashoffset: 0; stroke-linejoin: miter; stroke-miterlimit: 4; fill: rgb(74,72,181); fill-rule: nonzero; opacity: 1;" vector-effect="non-scaling-stroke"  transform=" translate(-853.9, -536.5)" d="M 856 532 L 856 539 L 852 541 C 851.632 535.48 851.632 535.48 853.438 533.125 C 855 532 855 532 856 532 Z" stroke-linecap="round" />
</g>
		<g transform="matrix(1 0 0 1 -180.36 -275.07)"  >
<path style="stroke: none; stroke-width: 1; stroke-dasharray: none; stroke-linecap: butt; stroke-dashoffset: 0; stroke-linejoin: miter; stroke-miterlimit: 4; fill: rgb(74,72,181); fill-rule: nonzero; opacity: 1;" vector-effect="non-scaling-stroke"  transform=" translate(-342, -236.5)" d="M 341 233 L 346 233 L 344 237 L 341 237 L 340 240 L 338 240 L 338 237 L 340 236 L 341 233 Z" stroke-linecap="round" />
</g>
		<g transform="matrix(1 0 0 1 283.14 -187.07)"  >
<path style="stroke: none; stroke-width: 1; stroke-dasharray: none; stroke-linecap: butt; stroke-dashoffset: 0; stroke-linejoin: miter; stroke-miterlimit: 4; fill: rgb(74,72,181); fill-rule: nonzero; opacity: 1;" vector-effect="non-scaling-stroke"  transform=" translate(-805.5, -324.5)" d="M 803 318 C 805.965 320.445 806.556 322.446 807.188 326.188 L 807.668 328.918 L 808 331 L 805 331 L 804.816 329.172 L 804.562 326.75 C 804.482 325.961 804.4 325.172 804.316 324.36 C 804.024 322.176 803.5790000000001 320.123 803 318 Z" stroke-linecap="round" />
</g>
		<g transform="matrix(1 0 0 1 -35.36 490.99)"  >
<path style="stroke: none; stroke-width: 1; stroke-dasharray: none; stroke-linecap: butt; stroke-dashoffset: 0; stroke-linejoin: miter; stroke-miterlimit: 4; fill: rgb(74,72,181); fill-rule: nonzero; opacity: 1;" vector-effect="non-scaling-stroke"  transform=" translate(-487, -1002.56)" d="M 482 1001 L 492 1001 L 492 1004 C 487.06 1004.337 486.215 1004.161 482 1001 Z" stroke-linecap="round" />
</g>
		<g transform="matrix(1 0 0 1 -269.95 331.43)"  >
<path style="stroke: none; stroke-width: 1; stroke-dasharray: none; stroke-linecap: butt; stroke-dashoffset: 0; stroke-linejoin: miter; stroke-miterlimit: 4; fill: rgb(74,72,181); fill-rule: nonzero; opacity: 1;" vector-effect="non-scaling-stroke"  transform=" translate(-252.41, -843)" d="M 253 836 L 254 836 C 253.036 845.41 253.036 845.41 252 850 L 251 850 C 250.631 840.59 250.631 840.59 253 836 Z" stroke-linecap="round" />
</g>
		<g transform="matrix(1 0 0 1 219.14 271.35)"  >
<path style="stroke: none; stroke-width: 1; stroke-dasharray: none; stroke-linecap: butt; stroke-dashoffset: 0; stroke-linejoin: miter; stroke-miterlimit: 4; fill: rgb(74,72,181); fill-rule: nonzero; opacity: 1;" vector-effect="non-scaling-stroke"  transform=" translate(-741.5, -782.92)" d="M 748 781 L 748 782 C 743.67 783.3 739.485 784.344 735 785 C 739.377 780.623 742.112 780.6 748 781 Z" stroke-linecap="round" />
</g>
		<g transform="matrix(1 0 0 1 241.14 227.93)"  >
<path style="stroke: none; stroke-width: 1; stroke-dasharray: none; stroke-linecap: butt; stroke-dashoffset: 0; stroke-linejoin: miter; stroke-miterlimit: 4; fill: rgb(74,72,181); fill-rule: nonzero; opacity: 1;" vector-effect="non-scaling-stroke"  transform=" translate(-763.5, -739.5)" d="M 765 736 L 767 736 L 767 739 L 765 740 L 764 743 L 760 742 C 761.6172286269802 739.959314047537 763.2843993073606 737.9587092310805 765 736 Z" stroke-linecap="round" />
</g>
		<g transform="matrix(1 0 0 1 -276.36 198.43)"  >
<path style="stroke: none; stroke-width: 1; stroke-dasharray: none; stroke-linecap: butt; stroke-dashoffset: 0; stroke-linejoin: miter; stroke-miterlimit: 4; fill: rgb(74,72,181); fill-rule: nonzero; opacity: 1;" vector-effect="non-scaling-stroke"  transform=" translate(-246, -710)" d="M 244 704 C 246.042 705.692 246.918 706.637 247.512 709.262 L 247.687 711.688 L 247.887 714.137 L 248 716 C 246 715 246 715 244.875 711.687 C 244 708 244 708 244 704 Z" stroke-linecap="round" />
</g>
		<g transform="matrix(1 0 0 1 135.14 301.43)"  >
<path style="stroke: none; stroke-width: 1; stroke-dasharray: none; stroke-linecap: butt; stroke-dashoffset: 0; stroke-linejoin: miter; stroke-miterlimit: 4; fill: rgb(74,72,181); fill-rule: nonzero; opacity: 1;" vector-effect="non-scaling-stroke"  transform=" translate(-657.5, -813)" d="M 660 811 L 660 815 L 655 815 L 655 812 C 657 811 657 811 660 811 Z" stroke-linecap="round" />
</g>
		<g transform="matrix(1 0 0 1 -153.86 -466.07)"  >
<path style="stroke: none; stroke-width: 1; stroke-dasharray: none; stroke-linecap: butt; stroke-dashoffset: 0; stroke-linejoin: miter; stroke-miterlimit: 4; fill: rgb(74,72,181); fill-rule: nonzero; opacity: 1;" vector-effect="non-scaling-stroke"  transform=" translate(-368.5, -45.5)" d="M 369 43 L 372 44 L 368 48 L 365 46 C 366.813 44.437 366.813 44.437 369 43 Z" stroke-linecap="round" />
</g>
		<g transform="matrix(1 0 0 1 38.64 490.38)"  >
<path style="stroke: none; stroke-width: 1; stroke-dasharray: none; stroke-linecap: butt; stroke-dashoffset: 0; stroke-linejoin: miter; stroke-miterlimit: 4; fill: rgb(74,72,181); fill-rule: nonzero; opacity: 1;" vector-effect="non-scaling-stroke"  transform=" translate(-561, -1001.95)" d="M 565 1000 L 564 1002 L 561 1002 L 561 1004 L 557 1003 C 559.466 999.885 561.108 999.684 565 1000 Z" stroke-linecap="round" />
</g>
		<g transform="matrix(1 0 0 1 72.64 486.43)"  >
<path style="stroke: none; stroke-width: 1; stroke-dasharray: none; stroke-linecap: butt; stroke-dashoffset: 0; stroke-linejoin: miter; stroke-miterlimit: 4; fill: rgb(74,72,181); fill-rule: nonzero; opacity: 1;" vector-effect="non-scaling-stroke"  transform=" translate(-595, -998)" d="M 593 996 L 598 996 L 597 999 L 592 1000 L 593 996 Z" stroke-linecap="round" />
</g>
		<g transform="matrix(1 0 0 1 292.14 261.93)"  >
<path style="stroke: none; stroke-width: 1; stroke-dasharray: none; stroke-linecap: butt; stroke-dashoffset: 0; stroke-linejoin: miter; stroke-miterlimit: 4; fill: rgb(74,72,181); fill-rule: nonzero; opacity: 1;" vector-effect="non-scaling-stroke"  transform=" translate(-814.5, -773.5)" d="M 811 772 C 813.343 772.256 815.678 772.593 818 773 L 819 775 L 810 774 L 811 772 Z" stroke-linecap="round" />
</g>
		<g transform="matrix(1 0 0 1 287.14 -165.07)"  >
<path style="stroke: none; stroke-width: 1; stroke-dasharray: none; stroke-linecap: butt; stroke-dashoffset: 0; stroke-linejoin: miter; stroke-miterlimit: 4; fill: rgb(74,72,181); fill-rule: nonzero; opacity: 1;" vector-effect="non-scaling-stroke"  transform=" translate(-809.5, -346.5)" d="M 807 344 L 812 345 L 812 349 C 810.062 348.187 810.062 348.187 808 347 L 807 344 Z" stroke-linecap="round" />
</g>
		<g transform="matrix(1 0 0 1 -499.96 -395.07)"  >
<path style="stroke: none; stroke-width: 1; stroke-dasharray: none; stroke-linecap: butt; stroke-dashoffset: 0; stroke-linejoin: miter; stroke-miterlimit: 4; fill: rgb(74,72,181); fill-rule: nonzero; opacity: 1;" vector-effect="non-scaling-stroke"  transform=" translate(-22.41, -116.5)" d="M 22 112 L 23 112 L 24 121 L 21 119 C 20.75 115.937 20.75 115.937 21 113 L 22 112 Z" stroke-linecap="round" />
</g>
</g>
</g>
</svg>